<?xml version="1.0" encoding="UTF-8"?> <svg xmlns="http://www.w3.org/2000/svg" width="90" height="28" viewBox="0 0 90 28" fill="none"> <mask id="mask0" maskUnits="userSpaceOnUse" x="0" y="4" width="24" height="24"> <path d="M12 28C18.6274 28 24 22.6274 24 16C24 9.37258 18.6274 4 12 4C5.3726 4 0 9.37258 0 16C0 22.6274 5.3726 28 12 28Z" fill="white"></path> </mask> <g mask="url(#mask0)"> <path d="M12 28C18.6274 28 24 22.6274 24 16C24 9.37258 18.6274 4 12 4C5.3726 4 0 9.37258 0 16C0 22.6274 5.3726 28 12 28Z" fill="#29B981"></path> <path fill-rule="evenodd" clip-rule="evenodd" d="M10.9531 6.92519C10.892 6.92519 10.8615 6.90448 10.8615 6.86303L10.4036 3.10213C10.4036 3.06068 10.4239 3.03996 10.4646 3.03996C10.5256 3.01924 10.5562 3.03996 10.5562 3.10213L11.0141 6.83195C11.0141 6.89411 10.9938 6.92519 10.9531 6.92519ZM7.22832 11.401C7.18761 11.401 7.16725 11.3906 7.16725 11.3699C7.12654 11.3492 7.12654 11.3181 7.16725 11.2766L10.892 6.80086C10.9124 6.78015 10.9429 6.76978 10.9837 6.76978C11.004 6.7905 11.0141 6.83195 11.0141 6.89411L7.28938 11.3699L7.22832 11.401ZM7.22832 11.401H7.19778C7.15708 11.3803 7.13673 11.3492 7.13673 11.3077L9.02965 6.11706C9.07036 6.07562 9.11106 6.06526 9.15177 6.08598C9.17212 6.08598 9.1823 6.11706 9.1823 6.17922L7.28938 11.3388C7.28938 11.3803 7.26902 11.401 7.22832 11.401ZM9.12124 6.24139H9.0907C9.05 6.22067 9.02965 6.17922 9.02965 6.11706L10.4036 3.07104C10.4442 3.0296 10.485 3.01924 10.5256 3.03996C10.5461 3.03996 10.5562 3.07104 10.5562 3.13321L9.1823 6.17922L9.12124 6.24139ZM13.3346 5.46435C13.3141 5.46435 13.2938 5.45398 13.2735 5.43326L10.4341 3.16429C10.3934 3.14357 10.3934 3.11249 10.4341 3.07104C10.4748 3.0296 10.5053 3.01924 10.5256 3.03996L13.365 5.30893C13.3854 5.32966 13.3955 5.37111 13.3955 5.43326L13.3346 5.46435ZM10.9531 6.92519L10.892 6.89411C10.8717 6.83195 10.8717 6.7905 10.892 6.76978L13.2735 5.30893C13.3141 5.28822 13.3549 5.29858 13.3955 5.34002C13.4566 5.40218 13.4464 5.43326 13.365 5.43326L10.9837 6.89411L10.9531 6.92519ZM10.9531 6.92519H10.9226L9.0907 6.24139C9.05 6.22067 9.02965 6.17922 9.02965 6.11706C9.07036 6.07562 9.11106 6.06526 9.15177 6.08598L10.9837 6.76978C11.004 6.76978 11.0141 6.80086 11.0141 6.86303C11.0141 6.90448 10.9938 6.92519 10.9531 6.92519ZM13.3346 5.46435C13.3141 5.46435 13.2938 5.45398 13.2735 5.43326C13.2531 5.43326 13.2429 5.40218 13.2429 5.34002L14.4641 3.07104C14.5049 3.0296 14.5456 3.01924 14.5863 3.03996C14.627 3.08141 14.6372 3.11249 14.6169 3.13321L13.3955 5.43326C13.3752 5.43326 13.365 5.43844 13.365 5.4488C13.365 5.45917 13.3549 5.46435 13.3346 5.46435ZM10.4951 3.19537C10.4341 3.19537 10.4036 3.16429 10.4036 3.10213C10.4036 3.06068 10.4341 3.03996 10.4951 3.03996H14.5558C14.5964 3.03996 14.6169 3.06068 14.6169 3.10213C14.6169 3.16429 14.5964 3.19537 14.5558 3.19537H10.4951ZM15.0137 4.81163C14.9526 4.81163 14.9221 4.79091 14.9221 4.74947L14.4641 3.13321C14.4641 3.07104 14.4845 3.03996 14.5252 3.03996C14.5863 2.9778 14.6169 2.98816 14.6169 3.07104L15.0748 4.6873C15.0748 4.74947 15.0545 4.79091 15.0137 4.81163ZM13.3346 5.46435C13.3141 5.46435 13.2836 5.44362 13.2429 5.40218C13.2429 5.34002 13.2633 5.30893 13.304 5.30893L14.9832 4.65622C15.0035 4.6355 15.034 4.64586 15.0748 4.6873C15.0748 4.74947 15.0545 4.78055 15.0137 4.78055L13.365 5.46435H13.3346ZM12.8155 8.44821C12.7951 8.44821 12.7748 8.43784 12.7544 8.41712C12.6934 8.41712 12.6934 8.38604 12.7544 8.32388L14.9221 4.6873C14.9628 4.64586 15.0035 4.6355 15.0443 4.65622C15.0646 4.67694 15.0748 4.70802 15.0748 4.74947L12.8765 8.41712L12.8155 8.44821ZM12.8155 8.44821C12.7951 8.44821 12.7748 8.43784 12.7544 8.41712L10.892 6.89411C10.8513 6.87339 10.8513 6.84231 10.892 6.80086C10.9327 6.75942 10.9632 6.74906 10.9837 6.76978L12.846 8.29279C12.8664 8.31352 12.8765 8.35496 12.8765 8.41712L12.8155 8.44821ZM12.8155 8.44821H12.785C12.7442 8.44821 12.7239 8.41712 12.7239 8.35496L13.2429 5.3711C13.2429 5.32966 13.2735 5.30893 13.3346 5.30893C13.3752 5.30893 13.3955 5.34002 13.3955 5.40218L12.8765 8.38604C12.8765 8.42748 12.8562 8.44821 12.8155 8.44821ZM12.4186 10.9969H12.388C12.3474 10.9969 12.3269 10.9658 12.3269 10.9037L12.7239 8.35496C12.7239 8.31352 12.7544 8.29279 12.8155 8.29279C12.8562 8.29279 12.8765 8.32388 12.8765 8.38604L12.4797 10.9348C12.4797 10.9762 12.4593 10.9969 12.4186 10.9969ZM12.4186 10.9969H12.388L9.6708 10.6239C9.56902 10.6239 9.54868 10.5928 9.60973 10.5307C9.60973 10.4892 9.63009 10.4685 9.6708 10.4685L12.4186 10.8415C12.4593 10.8829 12.4797 10.914 12.4797 10.9348C12.4797 10.9762 12.4593 10.9969 12.4186 10.9969ZM9.6708 10.6239H9.64026C9.59956 10.5825 9.58938 10.5514 9.60973 10.5307L10.8615 6.80086C10.9023 6.75942 10.9327 6.74906 10.9531 6.76978C10.9938 6.76978 11.0141 6.80086 11.0141 6.86303L9.73185 10.5618C9.73185 10.6032 9.7115 10.6239 9.6708 10.6239ZM12.4186 10.9969C12.3982 10.9969 12.3677 10.9762 12.3269 10.9348L10.8615 6.86303C10.8615 6.80086 10.8818 6.76978 10.9226 6.76978C10.9837 6.70762 11.0141 6.71798 11.0141 6.80086L12.4797 10.8726C12.4797 10.9348 12.4694 10.9762 12.4491 10.9969H12.4186ZM7.22832 11.401C7.20797 11.401 7.17743 11.3803 7.13673 11.3388C7.13673 11.2766 7.15708 11.2456 7.19778 11.2456L9.64026 10.4685C9.70133 10.4685 9.73185 10.4892 9.73185 10.5307C9.75221 10.5514 9.74203 10.5825 9.70133 10.6239L7.22832 11.401ZM13.3346 13.297C13.3141 13.297 13.2836 13.2762 13.2429 13.2348L12.3269 10.9658C12.266 10.9037 12.2761 10.8726 12.3575 10.8726C12.4186 10.8104 12.4491 10.8208 12.4491 10.9037L13.3955 13.1726C13.3955 13.2348 13.3854 13.2762 13.365 13.297H13.3346ZM13.3346 13.297L13.2735 13.2659C13.2531 13.2037 13.2531 13.1623 13.2735 13.1416L16.1128 11.2456C16.1739 11.2456 16.2146 11.2559 16.2349 11.2766C16.2349 11.3388 16.2248 11.3803 16.2044 11.401L13.365 13.2659L13.3346 13.297ZM16.1739 11.401H16.1434L12.388 10.9969C12.3066 10.9969 12.2863 10.9762 12.3269 10.9348C12.3269 10.8726 12.3474 10.8415 12.388 10.8415L16.1739 11.2456C16.2146 11.2456 16.2349 11.2766 16.2349 11.3388C16.2349 11.3803 16.2146 11.401 16.1739 11.401ZM16.1739 11.401C16.1332 11.401 16.1026 11.3906 16.0823 11.3699L15.2274 9.3185C15.2274 9.27705 15.2477 9.24597 15.2885 9.22525C15.3088 9.20452 15.3394 9.21489 15.3801 9.25632L16.2349 11.3077C16.2349 11.3699 16.2248 11.401 16.2044 11.401H16.1739ZM15.319 9.38065H15.2885L12.785 8.44821C12.7442 8.42748 12.7239 8.38604 12.7239 8.32388C12.7646 8.28243 12.8053 8.27207 12.846 8.29279L15.3496 9.22525C15.3699 9.22525 15.3801 9.25633 15.3801 9.3185C15.3801 9.35994 15.3597 9.38065 15.319 9.38065ZM15.319 9.38065H15.2885C15.2477 9.33921 15.2274 9.30814 15.2274 9.28741L15.777 6.86303C15.7973 6.82159 15.8278 6.80086 15.8686 6.80086C15.9093 6.80086 15.9297 6.83195 15.9297 6.89411L15.3801 9.3185C15.3801 9.35994 15.3597 9.38065 15.319 9.38065ZM15.8686 6.95628C15.8482 6.95628 15.8177 6.93555 15.777 6.89411L14.9221 4.74947C14.9221 4.6873 14.9425 4.65622 14.9832 4.65622C15.0035 4.6355 15.034 4.64586 15.0748 4.6873L15.9297 6.83195C15.95 6.87339 15.9398 6.91483 15.8991 6.95628H15.8686ZM12.8155 8.44821C12.7951 8.44821 12.7646 8.42748 12.7239 8.38604C12.7239 8.34459 12.7442 8.31352 12.785 8.29279L15.8381 6.80086C15.8584 6.78015 15.8889 6.79051 15.9297 6.83195C15.95 6.87339 15.9398 6.91483 15.8991 6.95628L12.846 8.44821H12.8155ZM16.1739 11.401H16.1128L12.7544 8.41712C12.7137 8.39639 12.7137 8.36532 12.7544 8.32388C12.7748 8.30315 12.8053 8.29279 12.846 8.29279L16.2044 11.2766C16.2248 11.2974 16.2349 11.3284 16.2349 11.3699L16.1739 11.401ZM18.0668 12.4888H18.0362L16.1128 11.401C16.0925 11.3803 16.0823 11.3492 16.0823 11.3077C16.123 11.2456 16.1637 11.2352 16.2044 11.2766L18.1279 12.3334C18.1482 12.3542 18.1482 12.3956 18.1279 12.4578C18.1075 12.4785 18.0872 12.4888 18.0668 12.4888ZM18.0668 12.4888C18.0261 12.4888 18.0058 12.4681 18.0058 12.4267L17.3341 10.1266C17.3341 10.1059 17.3544 10.0748 17.3951 10.0334C17.4562 10.0334 17.4868 10.0541 17.4868 10.0955L18.1584 12.3956C18.1584 12.4163 18.1381 12.4474 18.0973 12.4888H18.0668ZM16.2044 11.401H16.1128C16.0721 11.3595 16.0721 11.3181 16.1128 11.2766L17.3646 10.0645C17.3849 10.0437 17.4155 10.0437 17.4562 10.0645C17.4766 10.1059 17.4766 10.137 17.4562 10.1577L16.2044 11.401ZM17.4257 10.1888H17.3951L15.2885 9.38065C15.2477 9.35994 15.2274 9.31849 15.2274 9.25632C15.2682 9.21489 15.3088 9.20452 15.3496 9.22525L17.4562 10.0334C17.4766 10.0541 17.4868 10.0955 17.4868 10.1577C17.4868 10.1784 17.4663 10.1888 17.4257 10.1888ZM17.4257 10.1888C17.3849 10.1888 17.3544 10.1784 17.3341 10.1577L15.777 6.89411C15.777 6.85266 15.7973 6.82159 15.8381 6.80086C15.8584 6.78015 15.8889 6.79051 15.9297 6.83195L17.4868 10.0955C17.4868 10.137 17.4766 10.1681 17.4562 10.1888H17.4257ZM12.4491 10.9969H12.3269C12.2863 10.9555 12.2863 10.914 12.3269 10.8726H12.3575C12.3779 10.8519 12.4084 10.8519 12.4491 10.8726C12.4694 10.914 12.4694 10.9451 12.4491 10.9658V10.9969ZM9.6708 13.297C9.65044 13.2762 9.63009 13.2659 9.60973 13.2659C9.56902 13.2452 9.5792 13.2037 9.64026 13.1416L12.3575 10.8415C12.3779 10.8208 12.4186 10.8311 12.4797 10.8726C12.4797 10.914 12.4694 10.9451 12.4491 10.9658L9.73185 13.2659C9.7115 13.2866 9.69114 13.297 9.6708 13.297ZM9.6708 13.297C9.63009 13.297 9.60973 13.2659 9.60973 13.2037V10.5618C9.60973 10.4996 9.63009 10.4685 9.6708 10.4685C9.73186 10.4685 9.76239 10.4892 9.76239 10.5307V13.2037C9.76239 13.2659 9.73186 13.297 9.6708 13.297ZM9.6708 13.297C9.65044 13.297 9.64026 13.2866 9.64026 13.2659L7.16725 11.3699C7.1062 11.3699 7.1062 11.3388 7.16725 11.2766C7.16725 11.2559 7.19778 11.2456 7.25885 11.2456L9.73185 13.1416C9.77257 13.183 9.77257 13.2244 9.73185 13.2659C9.7115 13.2866 9.69114 13.297 9.6708 13.297ZM11.2585 14.2605H11.2279C11.1871 14.219 11.177 14.1776 11.1974 14.1362L12.2965 10.9037C12.3372 10.8622 12.3677 10.8415 12.388 10.8415C12.4288 10.8622 12.4491 10.9037 12.4491 10.9658L11.35 14.1984C11.3093 14.2398 11.2788 14.2605 11.2585 14.2605ZM11.2585 14.2605C11.238 14.2605 11.2279 14.2502 11.2279 14.2294L9.64026 13.2659C9.55885 13.2659 9.54868 13.2348 9.60973 13.1726C9.65044 13.1312 9.69115 13.1208 9.73185 13.1416L11.3194 14.1051C11.3399 14.1258 11.3399 14.1672 11.3194 14.2294C11.2991 14.2502 11.2788 14.2605 11.2585 14.2605ZM6.31238 14.0119H6.28186C6.24114 14.0119 6.2208 13.9808 6.2208 13.9186L7.13673 11.3077C7.15708 11.2663 7.18761 11.2456 7.22832 11.2456C7.26902 11.2663 7.28938 11.2974 7.28938 11.3388L6.37345 13.9808C6.37345 14.0015 6.3531 14.0119 6.31238 14.0119ZM5.21327 16.4673H5.18274C5.14204 16.4259 5.13186 16.3948 5.15221 16.3741L6.2208 13.9186C6.2615 13.8772 6.30221 13.8668 6.34292 13.8875C6.36328 13.8875 6.37345 13.9186 6.37345 13.9808L5.27434 16.4363C5.27434 16.4569 5.25398 16.4673 5.21327 16.4673ZM5.21327 16.4673C5.19292 16.4673 5.17257 16.4569 5.15221 16.4363C5.09115 16.3741 5.10133 16.343 5.18274 16.343L7.74734 14.6024C7.80841 14.5402 7.83893 14.5402 7.83893 14.6024C7.87965 14.6438 7.87965 14.6852 7.83893 14.7268L5.27434 16.4673H5.21327ZM7.77788 14.7268H7.74734L6.28186 14.0119C6.24114 14.0119 6.2208 13.9808 6.2208 13.9186C6.2615 13.8772 6.30221 13.8668 6.34292 13.8875L7.80841 14.5713C7.84912 14.592 7.86946 14.6335 7.86946 14.6956C7.84912 14.7164 7.81858 14.7268 7.77788 14.7268ZM6.31238 14.0119C6.25133 14.0119 6.2208 13.9911 6.2208 13.9497C6.2208 13.9082 6.24114 13.8875 6.28186 13.8875L9.6708 13.1416C9.69114 13.1208 9.72168 13.1416 9.76239 13.2037C9.76239 13.2244 9.74204 13.2555 9.70133 13.297L6.31238 14.0119ZM7.77788 14.7268C7.75752 14.7268 7.73717 14.7164 7.71681 14.6956C7.65575 14.6335 7.66593 14.6024 7.74734 14.6024L9.64026 13.1416C9.66062 13.1208 9.69115 13.1312 9.73185 13.1726C9.75221 13.2141 9.75221 13.2452 9.73185 13.2659L7.83893 14.7268H7.77788ZM7.77788 14.7268C7.73717 14.7268 7.71681 14.706 7.71681 14.6646C7.71681 14.6024 7.73717 14.5713 7.77788 14.5713L11.2585 14.1051C11.3194 14.1051 11.35 14.1258 11.35 14.1672C11.35 14.2294 11.3296 14.2605 11.2889 14.2605L7.80841 14.7268H7.77788ZM10.3119 16.3119C10.2916 16.3119 10.2814 16.3016 10.2814 16.2808C10.2 16.2808 10.1898 16.2498 10.2509 16.1876L11.1974 14.1362C11.238 14.0948 11.2686 14.0844 11.2889 14.1051C11.3296 14.1258 11.35 14.1568 11.35 14.1984L10.373 16.2498C10.373 16.2912 10.3527 16.3119 10.3119 16.3119ZM10.3119 16.3119C10.2916 16.3119 10.2814 16.3016 10.2814 16.2808L7.74734 14.7268C7.70664 14.6852 7.69646 14.6438 7.71681 14.6024C7.73717 14.5817 7.77788 14.5817 7.83893 14.6024L10.3425 16.1565C10.4036 16.1772 10.4137 16.2083 10.373 16.2498C10.373 16.2912 10.3527 16.3119 10.3119 16.3119ZM8.05265 16.716C8.01194 16.716 7.9916 16.6952 7.9916 16.6538L7.71681 14.6646C7.71681 14.6024 7.73717 14.5713 7.77788 14.5713C7.83893 14.5713 7.86946 14.592 7.86946 14.6335L8.14425 16.6227C8.14425 16.6849 8.11372 16.716 8.05265 16.716ZM8.05265 16.716L5.21327 16.4673C5.17257 16.4673 5.15221 16.4466 5.15221 16.4051C5.15221 16.343 5.17257 16.3119 5.21327 16.3119L8.05265 16.5605C8.11372 16.5605 8.14425 16.5917 8.14425 16.6538C8.14425 16.6952 8.11372 16.716 8.05265 16.716ZM8.05265 16.716C8.01194 16.716 7.9916 16.6952 7.9916 16.6538C7.93053 16.5917 7.95088 16.5605 8.05265 16.5605L10.3119 16.1254C10.373 16.1047 10.4036 16.1254 10.4036 16.1876C10.4036 16.2083 10.3832 16.2394 10.3425 16.2808L8.08318 16.716H8.05265ZM9.64026 17.9903H9.60973C9.58938 17.9903 9.5792 17.9592 9.5792 17.8971L10.2509 16.1565C10.2916 16.115 10.3323 16.1047 10.373 16.1254C10.3934 16.1254 10.4036 16.1565 10.4036 16.2186L9.73185 17.9592C9.7115 17.98 9.68097 17.9903 9.64026 17.9903ZM9.64026 17.9903C9.59956 17.9903 9.5792 17.9696 9.5792 17.9282C9.5792 17.866 9.59956 17.835 9.64026 17.835L12.0217 17.6484C12.0624 17.6484 12.0827 17.6795 12.0827 17.7416C12.1235 17.7831 12.1031 17.8038 12.0217 17.8038L9.6708 17.9903H9.64026ZM15.1969 17.9903L12.0217 17.8038C11.9606 17.8038 11.9301 17.7831 11.9301 17.7416C11.9504 17.6795 11.981 17.6484 12.0217 17.6484L15.2274 17.835C15.2682 17.835 15.2885 17.866 15.2885 17.9282C15.2885 17.9696 15.258 17.9903 15.1969 17.9903ZM15.1969 17.9903C15.1562 17.9903 15.1359 17.98 15.1359 17.9592L14.1588 15.193C14.0978 15.1308 14.1079 15.0997 14.1894 15.0997C14.2504 15.0997 14.281 15.1101 14.281 15.1308L15.2885 17.8971C15.2885 17.9592 15.2682 17.9903 15.2274 17.9903H15.1969ZM14.2199 15.2552C14.1792 15.2552 14.1588 15.2344 14.1588 15.193L13.2429 13.2348C13.2429 13.1934 13.2633 13.1623 13.304 13.1416C13.3243 13.1208 13.3549 13.1312 13.3955 13.1726L14.281 15.1308C14.3013 15.1722 14.2912 15.2136 14.2504 15.2552H14.2199ZM9.64026 17.9903H9.60973L8.02212 16.716C7.96106 16.6745 7.95088 16.6331 7.9916 16.5917C8.0323 16.5502 8.07301 16.5502 8.11372 16.5917L9.70133 17.866C9.72168 17.9074 9.72168 17.9385 9.70133 17.9592C9.70133 17.98 9.68097 17.9903 9.64026 17.9903ZM8.44956 19.2958C8.40885 19.2958 8.37832 19.275 8.35796 19.2336L7.9916 16.6538C7.93053 16.5917 7.95088 16.5605 8.05265 16.5605C8.07301 16.5605 8.10354 16.5813 8.14425 16.6227L8.51062 19.2336C8.55133 19.275 8.53097 19.2958 8.44956 19.2958ZM8.44956 19.2958H8.41902L6.37345 18.6119C6.33274 18.6119 6.31238 18.5809 6.31238 18.5187C6.31238 18.4358 6.34292 18.4255 6.40398 18.4876L8.48009 19.1715C8.5208 19.1715 8.53097 19.2025 8.51062 19.2647C8.51062 19.2854 8.49026 19.2958 8.44956 19.2958ZM6.43451 18.6119H6.34292C6.32257 18.5913 6.31238 18.5498 6.31238 18.4876L7.9916 16.5917C8.0323 16.5502 8.07301 16.5502 8.11372 16.5917C8.13406 16.6331 8.13406 16.6642 8.11372 16.6849L6.43451 18.6119ZM4.38894 18.3322H4.35841C4.3177 18.2908 4.30753 18.2494 4.32787 18.2079L5.15221 16.3741C5.15221 16.3326 5.18274 16.3119 5.24381 16.3119C5.28451 16.3534 5.29469 16.3948 5.27434 16.4363L4.48053 18.27C4.43982 18.3115 4.40929 18.3322 4.38894 18.3322ZM6.37345 18.6119L4.38894 18.3322C4.34823 18.3322 4.32787 18.3012 4.32787 18.239C4.32787 18.1975 4.35841 18.1768 4.41947 18.1768L6.40398 18.4566C6.44469 18.498 6.46505 18.5291 6.46505 18.5498C6.46505 18.5913 6.43451 18.6119 6.37345 18.6119ZM3.74778 20.2904L3.68673 20.2593C3.66637 20.1971 3.67655 20.1557 3.71726 20.1349L6.34292 18.4876C6.40398 18.4255 6.43451 18.4358 6.43451 18.5187C6.45486 18.5601 6.45486 18.5913 6.43451 18.6119L3.77831 20.2593L3.74778 20.2904ZM3.74778 20.2904H3.71726C3.67655 20.2489 3.66637 20.2179 3.68673 20.1971L4.02257 19.0782C4.02257 19.0367 4.0531 19.0264 4.11416 19.0471C4.15487 19.0471 4.16505 19.0782 4.14469 19.1403L3.80885 20.2282C3.80885 20.2697 3.7885 20.2904 3.74778 20.2904ZM4.08363 19.1715H4.0531C3.97168 19.1715 3.9615 19.1403 4.02257 19.0782L4.32787 18.2079C4.32787 18.125 4.35841 18.1147 4.41947 18.1768C4.46018 18.1768 4.48053 18.2079 4.48053 18.27L4.14469 19.1403C4.14469 19.1611 4.12434 19.1715 4.08363 19.1715ZM6.31238 20.3215C6.29204 20.3215 6.28186 20.3163 6.28186 20.3059C6.28186 20.2956 6.27168 20.2904 6.25133 20.2904C6.25133 20.2282 6.2615 20.1867 6.28186 20.1661L8.41902 19.1715C8.48009 19.1093 8.51062 19.1197 8.51062 19.2025C8.57168 19.2647 8.5615 19.2958 8.48009 19.2958L6.34292 20.3215H6.31238ZM6.31238 20.3215C6.27168 20.3215 6.25133 20.2904 6.25133 20.2282L6.31238 18.5498C6.31238 18.5083 6.33274 18.4876 6.37345 18.4876C6.43451 18.4876 6.46505 18.5083 6.46505 18.5498L6.40398 20.2593C6.40398 20.3007 6.37345 20.3215 6.31238 20.3215ZM6.31238 20.3215L3.74778 20.2904C3.68673 20.2904 3.65619 20.2593 3.65619 20.1971C3.65619 20.1557 3.68673 20.1349 3.74778 20.1349L6.31238 20.1661C6.37345 20.1661 6.40398 20.1971 6.40398 20.2593C6.40398 20.3007 6.37345 20.3215 6.31238 20.3215ZM8.51062 19.2958H8.38849C8.34778 19.2543 8.34778 19.2129 8.38849 19.1715L9.60973 17.866C9.60973 17.8038 9.64026 17.8038 9.70133 17.866C9.74204 17.9074 9.74204 17.9489 9.70133 17.9903L8.51062 19.2958ZM6.37345 18.6431C6.33274 18.6431 6.31238 18.6223 6.31238 18.5809L5.15221 16.4363C5.09115 16.3741 5.10133 16.343 5.18274 16.343C5.24381 16.2808 5.27434 16.2912 5.27434 16.3741L6.43451 18.5187C6.49557 18.5809 6.4854 18.6119 6.40398 18.6119C6.40398 18.6327 6.39381 18.6431 6.37345 18.6431ZM2.55707 23.2743H2.52655C2.48584 23.2535 2.46549 23.2121 2.46549 23.1499L3.68673 20.1661C3.68673 20.0831 3.71726 20.0728 3.77831 20.1349C3.81903 20.1765 3.82921 20.2075 3.80885 20.2282L2.61814 23.2121C2.61814 23.2535 2.59779 23.2743 2.55707 23.2743ZM7.96106 22.3107C7.9407 22.3107 7.92036 22.3003 7.9 22.2797L6.25133 20.2904C6.25133 20.2282 6.2615 20.1971 6.28186 20.1971C6.30221 20.1765 6.33274 20.1765 6.37345 20.1971L8.02212 22.1863C8.06284 22.2279 8.06284 22.2693 8.02212 22.3107H7.96106ZM7.96106 22.3107C7.9407 22.3107 7.91018 22.2899 7.86946 22.2485C7.86946 22.1863 7.9 22.1553 7.96106 22.1553L9.9761 21.9377C10.0372 21.9377 10.0677 21.9688 10.0677 22.031C10.0677 22.0724 10.0473 22.0931 10.0066 22.0931L7.96106 22.3107ZM13.5177 22.3107L9.9761 22.0931C9.9354 22.0931 9.91504 22.0724 9.91504 22.031C9.91504 21.9688 9.94557 21.9377 10.0066 21.9377L13.5177 22.1553C13.5788 22.1553 13.6092 22.1863 13.6092 22.2485C13.6092 22.2899 13.5788 22.3107 13.5177 22.3107ZM13.5177 22.3107C13.477 22.3107 13.4566 22.2899 13.4566 22.2485C13.4566 22.1863 13.477 22.1553 13.5177 22.1553L16.9372 21.9377C16.9982 21.9377 17.0287 21.9688 17.0287 22.031C17.0287 22.0724 16.9982 22.0931 16.9372 22.0931L13.5177 22.3107ZM17.7005 24.1446C17.6597 24.1446 17.6292 24.1342 17.6088 24.1134L16.8761 22.062C16.815 21.9998 16.8252 21.9688 16.9067 21.9688C16.9473 21.948 16.9881 21.9584 17.0287 21.9998L17.7615 24.0512C17.8225 24.1134 17.8124 24.1446 17.731 24.1446H17.7005ZM18.9522 27.0041C18.9115 27.0041 18.8911 26.9833 18.8911 26.9419L17.6088 24.1134C17.6088 24.0512 17.6292 24.0098 17.6699 23.9891C17.7106 23.9891 17.7411 24.0098 17.7615 24.0512L19.0438 26.8797C19.0438 26.9419 19.0234 26.9729 18.9828 26.9729C18.9828 26.9937 18.9726 27.0041 18.9522 27.0041ZM7.22832 24.0512H7.19778C7.15708 24.0306 7.13673 23.9995 7.13673 23.958L7.9 22.2175C7.9 22.176 7.93053 22.1553 7.9916 22.1553C8.0323 22.1967 8.04248 22.2381 8.02212 22.2797L7.28938 24.0202C7.28938 24.041 7.26902 24.0512 7.22832 24.0512ZM6.67876 25.5432H6.64823C6.60752 25.5432 6.58717 25.5121 6.58717 25.4499L7.13673 23.958C7.15708 23.9166 7.19778 23.8959 7.25885 23.8959C7.29956 23.9373 7.30973 23.9788 7.28938 24.0202L6.73982 25.5121C6.73982 25.5328 6.71946 25.5432 6.67876 25.5432ZM6.09867 27.0351L1.09159 27.0041C1.03053 27.0041 1 26.9729 1 26.9108C1 26.8694 1.03053 26.8487 1.09159 26.8487L6.09867 26.8797C6.13938 26.8797 6.15973 26.9108 6.15973 26.9729C6.15973 27.0144 6.13938 27.0351 6.09867 27.0351ZM1.09159 27.0041C1.07124 27.0041 1.04071 26.9833 1 26.9419C1 26.8797 1.02035 26.8487 1.06106 26.8487L6.64823 25.3879C6.70929 25.3879 6.73982 25.4085 6.73982 25.4499C6.73982 25.5121 6.71946 25.5432 6.67876 25.5432L1.09159 27.0041ZM1.09159 27.0041H1.06106C1.02035 26.9627 1 26.9211 1 26.8797L1.58009 25.1392C1.58009 25.0977 1.61062 25.0874 1.67168 25.108C1.7531 25.108 1.76327 25.1392 1.70221 25.2013L1.15265 26.9419C1.15265 26.9833 1.1323 27.0041 1.09159 27.0041ZM1.64115 25.2635L1.61062 25.2324C1.52921 25.2324 1.51902 25.2013 1.58009 25.1392L2.46549 23.1499C2.50619 23.1084 2.5469 23.0981 2.58761 23.1188C2.62832 23.1603 2.6385 23.1913 2.61814 23.2121L1.70221 25.2013C1.70221 25.2428 1.68186 25.2635 1.64115 25.2635ZM1.64115 25.2635C1.60044 25.2635 1.56991 25.2324 1.54955 25.1702C1.54955 25.1288 1.58009 25.108 1.64115 25.108L4.20575 24.7661C4.2261 24.7661 4.25663 24.7869 4.29734 24.8283C4.29734 24.8905 4.26681 24.9216 4.20575 24.9216L1.64115 25.2635ZM1.09159 27.0041L1.03053 26.9729C1.01018 26.9108 1.01018 26.8693 1.03053 26.8487L4.17522 24.7661C4.19558 24.7454 4.2261 24.7558 4.26681 24.7973C4.32787 24.8595 4.32787 24.8905 4.26681 24.8905L1.12212 26.9729L1.09159 27.0041ZM6.67876 25.5432H6.64823L4.20575 24.9216C4.14469 24.8801 4.12434 24.8491 4.14469 24.8283C4.14469 24.7869 4.17522 24.7661 4.23629 24.7661L6.67876 25.3879C6.71946 25.4085 6.73982 25.4396 6.73982 25.4811C6.73982 25.5225 6.71946 25.5432 6.67876 25.5432ZM6.67876 25.5432C6.6177 25.5432 6.58717 25.5225 6.58717 25.4811L6.25133 20.2593C6.25133 20.1971 6.27168 20.1661 6.31238 20.1661C6.37345 20.1661 6.40398 20.1867 6.40398 20.2282L6.73982 25.4811C6.73982 25.5225 6.71946 25.5432 6.67876 25.5432ZM4.66371 22.6526H4.63318C4.57213 22.6112 4.56194 22.5697 4.60265 22.5282L6.25133 20.1971C6.27168 20.1765 6.31238 20.1661 6.37345 20.1661C6.41416 20.2075 6.41416 20.2489 6.37345 20.2904L4.72478 22.6215C4.72478 22.6422 4.70442 22.6526 4.66371 22.6526ZM7.96106 22.3107C7.87964 22.3107 7.85929 22.2797 7.9 22.2175L8.35796 19.2336C8.39868 19.1715 8.4292 19.1507 8.44956 19.1715C8.53097 19.1715 8.55133 19.1921 8.51062 19.2336L8.02212 22.2485C8.02212 22.2899 8.00177 22.3107 7.96106 22.3107ZM7.96106 22.3107C7.9407 22.3107 7.92036 22.3003 7.9 22.2797C7.85929 22.2589 7.85929 22.2279 7.9 22.1863L10.0982 19.8864C10.1186 19.8656 10.1491 19.8656 10.1898 19.8864C10.2102 19.9278 10.2102 19.9588 10.1898 19.9796L8.02212 22.2797C8.00177 22.3003 7.98141 22.3107 7.96106 22.3107ZM10.1593 20.0106H10.1288L8.41902 19.2958C8.33761 19.2958 8.32744 19.2647 8.38849 19.2025C8.38849 19.1197 8.41902 19.1093 8.48009 19.1715L10.1898 19.8552C10.2102 19.876 10.2204 19.9174 10.2204 19.9796C10.2204 20.0003 10.2 20.0106 10.1593 20.0106ZM10.1593 20.0106C10.1389 20.0106 10.1084 19.9899 10.0677 19.9484L9.5792 17.9282C9.5792 17.8867 9.59956 17.8556 9.64026 17.835C9.66062 17.835 9.69115 17.8556 9.73185 17.8971L10.2204 19.9174C10.2204 19.9796 10.2 20.0106 10.1593 20.0106ZM10.0066 22.0931H9.9761C9.9354 22.0931 9.91504 22.0724 9.91504 22.031L10.0677 19.9174C10.0677 19.876 10.0982 19.8552 10.1593 19.8552C10.2 19.8552 10.2204 19.8864 10.2204 19.9484L10.0677 22.031C10.0677 22.0724 10.0473 22.0931 10.0066 22.0931ZM10.1593 20.0106H10.0982C10.0575 19.9692 10.0575 19.9278 10.0982 19.8864L11.9606 17.6795C12.0013 17.6381 12.042 17.6381 12.0827 17.6795C12.1235 17.721 12.1235 17.7624 12.0827 17.8038L10.2204 19.9796L10.1593 20.0106ZM11.7469 20.1349C11.6858 20.1349 11.6553 20.1039 11.6553 20.0417L11.9301 17.7416C11.9504 17.6795 11.981 17.6484 12.0217 17.6484C12.0827 17.6899 12.1031 17.721 12.0827 17.7416L11.8079 20.0728C11.8079 20.1143 11.7876 20.1349 11.7469 20.1349ZM11.7469 20.1349L10.1288 20.0106C10.0881 20.0106 10.0677 19.9796 10.0677 19.9174C10.0677 19.876 10.0982 19.8552 10.1593 19.8552L11.7469 19.9796C11.8079 19.9796 11.8283 20.0106 11.8079 20.0728C11.8079 20.1143 11.7876 20.1349 11.7469 20.1349ZM12.4186 21.1917L12.3575 21.1607L11.6858 20.1039C11.6248 20.0417 11.635 20.0106 11.7164 20.0106C11.7367 19.9899 11.7673 19.9899 11.8079 20.0106L12.4797 21.0674C12.5 21.0881 12.4898 21.1192 12.4491 21.1607L12.4186 21.1917ZM9.91504 22.0931C9.87433 22.0931 9.84381 22.0828 9.82345 22.062C9.82345 21.9998 9.8438 21.9688 9.88452 21.9688L12.388 21.0364C12.4491 20.9742 12.4797 20.9846 12.4797 21.0674C12.5 21.1089 12.4898 21.1503 12.4491 21.1917L9.91504 22.0931ZM11.7469 20.1349C11.7062 20.1349 11.6858 20.1246 11.6858 20.1039C11.6655 20.0625 11.6756 20.021 11.7164 19.9796L13.7314 19.1715C13.7722 19.1507 13.8128 19.1611 13.8536 19.2025C13.8536 19.2647 13.8332 19.2958 13.7925 19.2958L11.7775 20.1349H11.7469ZM13.823 19.2958H13.7314L11.9606 17.8038C11.9199 17.7624 11.9199 17.721 11.9606 17.6795C12.0013 17.6381 12.042 17.6381 12.0827 17.6795L13.823 19.1715C13.8637 19.2129 13.8637 19.2543 13.823 19.2958ZM13.823 19.2958H13.7009C13.7009 19.2336 13.7111 19.1921 13.7314 19.1715L15.1663 17.866C15.1868 17.8452 15.2173 17.8452 15.2579 17.866C15.2987 17.9074 15.2987 17.9489 15.2579 17.9903L13.823 19.2958ZM15.5938 20.6945H15.4716L13.7314 19.2958C13.6907 19.2543 13.6805 19.2129 13.7009 19.1715C13.7416 19.1299 13.7823 19.1299 13.823 19.1715L15.5938 20.5701C15.6142 20.5909 15.6142 20.6323 15.5938 20.6945ZM12.4186 21.1917C12.3982 21.1917 12.3677 21.1711 12.3269 21.1296C12.3269 21.0674 12.3575 21.0364 12.4186 21.0364L15.5327 20.539C15.5735 20.539 15.5938 20.5701 15.5938 20.6323C15.6345 20.6737 15.6141 20.6945 15.5327 20.6945L12.4186 21.1917ZM13.5177 22.3107C13.4974 22.3107 13.4872 22.3003 13.4872 22.2797L12.3575 21.1607C12.3168 21.1192 12.3168 21.0778 12.3575 21.0364C12.3982 20.9949 12.4389 20.9949 12.4797 21.0364L13.5788 22.1863C13.5991 22.2279 13.5991 22.2589 13.5788 22.2797C13.5788 22.3003 13.5584 22.3107 13.5177 22.3107ZM13.5177 22.3107C13.4974 22.3107 13.477 22.3003 13.4566 22.2797C13.4363 22.2589 13.4464 22.2279 13.4872 22.1863L15.4716 20.5701C15.5327 20.5494 15.5735 20.5494 15.5938 20.5701C15.6142 20.6323 15.6142 20.6737 15.5938 20.6945L13.5788 22.3107H13.5177ZM16.9982 22.0931H16.9067L15.4716 20.6945C15.431 20.653 15.431 20.6115 15.4716 20.5701C15.5124 20.5287 15.5531 20.5287 15.5938 20.5701L16.9982 21.9688C17.0389 22.0102 17.0389 22.0517 16.9982 22.0931ZM15.5327 20.6945C15.4921 20.6945 15.4615 20.6737 15.4411 20.6323L15.1359 17.9282C15.1359 17.866 15.1562 17.835 15.1969 17.835C15.258 17.835 15.2885 17.8556 15.2885 17.8971L15.5938 20.6323C15.6345 20.6737 15.6141 20.6945 15.5327 20.6945ZM15.5938 20.6945H15.4716C15.431 20.653 15.431 20.6115 15.4716 20.5701L17.0593 19.1715C17.1 19.1299 17.1407 19.1299 17.1814 19.1715C17.2221 19.2129 17.2221 19.2543 17.1814 19.2958L15.5938 20.6945ZM17.1204 19.2958H17.0898L15.1663 17.9903C15.146 17.9696 15.1359 17.9282 15.1359 17.866C15.1765 17.8246 15.2173 17.8246 15.2579 17.866L17.1509 19.1715C17.212 19.1921 17.2221 19.2233 17.1814 19.2647C17.1814 19.2854 17.161 19.2958 17.1204 19.2958ZM15.1969 17.9903H15.1663C15.146 17.9696 15.1359 17.9282 15.1359 17.866L16.1128 16.343C16.1128 16.2808 16.1434 16.2808 16.2044 16.343C16.2248 16.343 16.2349 16.3741 16.2349 16.4363L15.2885 17.9592C15.2682 17.98 15.2376 17.9903 15.1969 17.9903ZM16.1739 16.4673H16.1128L14.1894 15.224C14.1079 15.224 14.0978 15.193 14.1588 15.1308C14.1996 15.0894 14.2301 15.079 14.2504 15.0997L16.2044 16.343C16.2248 16.343 16.2349 16.3741 16.2349 16.4363L16.1739 16.4673ZM16.7539 14.2605C16.7336 14.2605 16.7234 14.2502 16.7234 14.2294C16.6827 14.188 16.6725 14.1568 16.693 14.1362L18.0058 12.3645C18.0261 12.3438 18.0668 12.3334 18.1279 12.3334C18.1686 12.3749 18.1686 12.4163 18.1279 12.4578L16.815 14.2294C16.7947 14.2502 16.7744 14.2605 16.7539 14.2605ZM16.7539 14.2605C16.7133 14.2605 16.693 14.2398 16.693 14.1984L16.0823 11.3388C16.0823 11.3181 16.1026 11.287 16.1434 11.2456C16.2044 11.2456 16.2349 11.2663 16.2349 11.3077L16.8456 14.1672C16.8456 14.188 16.8252 14.219 16.7845 14.2605H16.7539ZM14.2199 15.2552H14.1894C14.1283 15.2136 14.1182 15.1722 14.1588 15.1308L16.0823 11.3077C16.123 11.2456 16.1637 11.2352 16.2044 11.2766C16.2858 11.2766 16.296 11.3077 16.2349 11.3699L14.281 15.193C14.281 15.2344 14.2607 15.2552 14.2199 15.2552ZM14.2199 15.2552C14.1792 15.2552 14.1588 15.2344 14.1588 15.193C14.1385 15.1722 14.1487 15.1412 14.1894 15.0997L16.7234 14.1051C16.7642 14.0844 16.8048 14.0948 16.8456 14.1362C16.8456 14.1776 16.8252 14.219 16.7845 14.2605L14.2504 15.2552H14.2199ZM16.1739 16.4673H16.1434C16.1026 16.4673 16.0823 16.4363 16.0823 16.3741L16.693 14.1672C16.693 14.1258 16.7234 14.1051 16.7845 14.1051C16.8252 14.1051 16.8456 14.1362 16.8456 14.1984L16.2349 16.4051C16.2349 16.4466 16.2146 16.4673 16.1739 16.4673ZM16.1739 16.4673C16.1128 16.4673 16.0823 16.4466 16.0823 16.4051C16.0823 16.343 16.1026 16.3119 16.1434 16.3119L18.311 15.97C18.3315 15.97 18.3619 16.0011 18.4027 16.0633C18.4027 16.1047 18.3823 16.1254 18.3416 16.1254L16.1739 16.4673ZM18.3721 16.1254H18.25L16.693 14.2294C16.6522 14.2087 16.6624 14.1672 16.7234 14.1051C16.7642 14.1051 16.7947 14.1154 16.815 14.1362L18.3721 16.0011C18.4129 16.0425 18.4129 16.084 18.3721 16.1254ZM18.311 16.1254C18.2704 16.1254 18.25 16.1047 18.25 16.0633L18.0058 12.4267C18.0058 12.3645 18.0261 12.3334 18.0668 12.3334C18.1279 12.3334 18.1584 12.3542 18.1584 12.3956L18.4027 16.0633C18.4027 16.1047 18.3721 16.1254 18.311 16.1254ZM19.9597 17.1822H19.9292L18.2805 16.1254C18.2398 16.084 18.2296 16.0529 18.25 16.0321C18.2704 15.97 18.3009 15.9597 18.3416 16.0011L19.9903 17.0579C20.0717 17.0579 20.0818 17.0889 20.0208 17.1511C20.0208 17.1718 20.0004 17.1822 19.9597 17.1822ZM19.9597 17.1822C19.919 17.1822 19.8986 17.1718 19.8986 17.1511L18.0058 12.4267C17.9854 12.406 17.9956 12.3749 18.0362 12.3334C18.0973 12.3334 18.1381 12.3542 18.1584 12.3956L20.0208 17.0889C20.0411 17.1097 20.0309 17.1407 19.9903 17.1822H19.9597ZM17.1204 19.2958C17.0796 19.2958 17.0593 19.2854 17.0593 19.2647L16.0823 16.4363C16.0823 16.3948 16.1026 16.3534 16.1434 16.3119C16.2044 16.3119 16.2349 16.3326 16.2349 16.3741L17.1814 19.2025C17.2424 19.2647 17.2323 19.2958 17.1509 19.2958H17.1204ZM19.5323 19.2958C19.5119 19.2958 19.5018 19.2854 19.5018 19.2647L16.1128 16.4673C16.0721 16.4259 16.0721 16.3844 16.1128 16.343C16.1332 16.3222 16.1637 16.3222 16.2044 16.343L19.5933 19.1715C19.6544 19.1715 19.6544 19.2025 19.5933 19.2647C19.5933 19.2854 19.573 19.2958 19.5323 19.2958ZM19.5323 19.2958C19.4916 19.2958 19.4713 19.275 19.4713 19.2336L18.25 16.0943C18.189 16.0321 18.1991 16.0011 18.2805 16.0011C18.3416 15.9803 18.3721 15.9907 18.3721 16.0321L19.5933 19.2025C19.6138 19.2232 19.6035 19.2543 19.5628 19.2958H19.5323ZM17.1204 19.2958C17.0593 19.2958 17.0287 19.275 17.0287 19.2336C17.0287 19.1715 17.0593 19.1403 17.1204 19.1403H19.5323C19.5933 19.1403 19.6239 19.1715 19.6239 19.2336C19.6239 19.275 19.5933 19.2958 19.5323 19.2958H17.1204ZM19.5323 22.3107C19.5119 22.3107 19.4916 22.3003 19.4713 22.2797L17.0593 19.2647C17.0186 19.244 17.0186 19.2129 17.0593 19.1715C17.1 19.1299 17.1407 19.1299 17.1814 19.1715L19.5933 22.1863C19.6341 22.2279 19.6341 22.2693 19.5933 22.3107H19.5323ZM19.5323 22.3107L16.9372 22.0931C16.8964 22.0931 16.8761 22.0724 16.8761 22.031C16.8761 21.9688 16.8964 21.9377 16.9372 21.9377L19.5323 22.1553C19.5933 22.1553 19.6138 22.1863 19.5933 22.2485C19.5933 22.2899 19.573 22.3107 19.5323 22.3107ZM16.9372 22.0931C16.8964 22.0931 16.8761 22.0724 16.8761 22.031L17.0287 19.2336C17.0492 19.1715 17.0796 19.1403 17.1204 19.1403C17.1814 19.1818 17.2018 19.2129 17.1814 19.2336L17.0287 22.031C17.0287 22.0724 16.9982 22.0931 16.9372 22.0931ZM19.5323 22.3107C19.4916 22.3107 19.4713 22.2797 19.4713 22.2175V19.2025C19.4713 19.1611 19.4916 19.1403 19.5323 19.1403C19.5933 19.1403 19.6239 19.1611 19.6239 19.2025V22.2175C19.6239 22.2797 19.5933 22.3107 19.5323 22.3107ZM19.5323 19.2958C19.4305 19.2958 19.4102 19.2647 19.4713 19.2025L19.8681 17.0889C19.9089 17.0475 19.9394 17.0267 19.9597 17.0267C20.0615 17.0267 20.0818 17.0579 20.0208 17.1201L19.6239 19.2336C19.5832 19.275 19.5527 19.2958 19.5323 19.2958ZM21.2726 20.2282C21.2318 20.2282 21.2115 20.2179 21.2115 20.1971L19.8986 17.1511C19.8783 17.1097 19.8885 17.0683 19.9292 17.0267C19.9903 17.0267 20.0208 17.0475 20.0208 17.0889L21.3642 20.1349C21.3642 20.1971 21.3438 20.2282 21.3031 20.2282H21.2726ZM19.5323 22.3107H19.4713C19.4305 22.2693 19.4305 22.2279 19.4713 22.1863L21.2115 20.1039C21.2522 20.0625 21.2929 20.0625 21.3337 20.1039C21.354 20.1453 21.354 20.1765 21.3337 20.1971L19.5933 22.2797C19.573 22.3003 19.5527 22.3107 19.5323 22.3107ZM21.2726 20.2282H21.242L19.5018 19.2958C19.461 19.2543 19.4509 19.2129 19.4713 19.1715C19.4916 19.1507 19.5221 19.1403 19.5628 19.1403L21.3031 20.1039C21.3438 20.1039 21.3642 20.1349 21.3642 20.1971C21.3438 20.2179 21.3132 20.2282 21.2726 20.2282ZM23.8677 27.0041H18.9522C18.9115 27.0041 18.8911 26.9729 18.8911 26.9108C18.8911 26.8694 18.9115 26.8487 18.9522 26.8487H23.8677C23.9288 26.8487 23.9593 26.8694 23.9593 26.9108C23.9593 26.9729 23.9288 27.0041 23.8677 27.0041ZM23.8677 27.0041L23.8066 26.9419L22.8907 24.6729C22.8907 24.6108 22.9111 24.5694 22.9517 24.5486C22.9925 24.5486 23.023 24.5694 23.0434 24.6108L23.9593 26.8797C23.9593 26.9419 23.9389 26.9729 23.8983 26.9729C23.8983 26.9937 23.888 27.0041 23.8677 27.0041ZM18.9522 27.0041L18.8911 26.9419C18.8708 26.9211 18.881 26.8901 18.9217 26.8487L22.9213 24.5486C22.9823 24.5486 23.023 24.559 23.0434 24.5796C23.0434 24.6418 23.0331 24.6833 23.0128 24.704L19.0133 26.9729C18.9929 26.9937 18.9726 27.0041 18.9522 27.0041ZM18.9522 27.0041C18.9115 26.9833 18.8911 26.9419 18.8911 26.8797L19.6239 24.4553C19.6239 24.4139 19.6544 24.3932 19.7155 24.3932C19.7562 24.4346 19.7766 24.4657 19.7766 24.4864L19.0438 26.9419C19.0031 26.9833 18.9726 27.0041 18.9522 27.0041ZM22.9517 24.704L19.6849 24.5486C19.6443 24.5486 19.6239 24.5278 19.6239 24.4864C19.6239 24.4243 19.6443 24.3932 19.6849 24.3932L22.9823 24.5486C23.023 24.5486 23.0434 24.5796 23.0434 24.6418C23.0434 24.6833 23.0128 24.704 22.9517 24.704ZM20.8452 25.9161C20.8247 25.9161 20.8044 25.9059 20.7841 25.8851L19.6239 24.5175C19.6239 24.4761 19.6341 24.445 19.6544 24.4243C19.6747 24.4035 19.7053 24.4035 19.746 24.4243L20.9062 25.7919C20.9672 25.8541 20.9672 25.8851 20.9062 25.8851C20.8858 25.9059 20.8655 25.9161 20.8452 25.9161ZM19.6849 24.5486C19.6443 24.5486 19.6239 24.5278 19.6239 24.4864L19.4407 22.2485C19.4407 22.1863 19.4713 22.1553 19.5323 22.1553C19.573 22.1553 19.5933 22.176 19.5933 22.2175L19.7766 24.4553C19.7766 24.5175 19.7562 24.5486 19.7155 24.5486H19.6849ZM17.7005 24.1446C17.6597 24.1446 17.6394 24.1342 17.6394 24.1134C17.5986 24.0928 17.5986 24.0616 17.6394 24.0202L19.4713 22.1863C19.5119 22.1449 19.5527 22.1449 19.5933 22.1863C19.6138 22.2279 19.6138 22.2589 19.5933 22.2797L17.731 24.1134L17.7005 24.1446ZM19.6849 24.5486L17.6699 24.1446C17.6292 24.1446 17.6088 24.1134 17.6088 24.0512C17.6496 24.0098 17.68 23.9891 17.7005 23.9891L19.7155 24.3932C19.7562 24.3932 19.7766 24.4243 19.7766 24.4864C19.7766 24.5278 19.746 24.5486 19.6849 24.5486ZM19.6849 24.5486C19.6646 24.5486 19.6443 24.5382 19.6239 24.5175C19.5628 24.4553 19.573 24.4243 19.6544 24.4243L22.1275 22.5594C22.1478 22.5386 22.1783 22.549 22.219 22.5904C22.2393 22.6319 22.2393 22.663 22.219 22.6837L19.746 24.5486H19.6849ZM22.1579 22.7147L19.5323 22.3107C19.4509 22.3107 19.4305 22.2797 19.4713 22.2175C19.4713 22.176 19.4916 22.1553 19.5323 22.1553L22.1885 22.5594C22.2292 22.5594 22.2495 22.5904 22.2495 22.6526C22.2495 22.6941 22.219 22.7147 22.1579 22.7147ZM22.1579 22.7147C22.1173 22.7147 22.0969 22.6941 22.0969 22.6526L21.2115 20.1971C21.1912 20.1557 21.2013 20.1143 21.242 20.0728C21.2828 20.0728 21.3234 20.0935 21.3642 20.1349L22.2495 22.5904C22.2495 22.6319 22.2292 22.6733 22.1885 22.7147H22.1579ZM22.9517 24.704C22.9314 24.704 22.9111 24.6936 22.8907 24.6729L22.0969 22.6526C22.0358 22.5904 22.0461 22.5594 22.1275 22.5594C22.1681 22.5386 22.2089 22.549 22.2495 22.5904L23.0434 24.6108C23.0434 24.6522 23.023 24.6833 22.9823 24.704H22.9517ZM6.06814 26.9729C6.02743 26.9729 6.00708 26.9419 6.00708 26.8797L6.58717 25.4499C6.62788 25.4085 6.66858 25.3879 6.70929 25.3879C6.72965 25.4085 6.73982 25.4499 6.73982 25.5121L6.15973 26.9419C6.13938 26.9627 6.10885 26.9729 6.06814 26.9729ZM23.8677 27.0041L20.8146 25.9161C20.7739 25.8747 20.7638 25.8437 20.7841 25.8229C20.7841 25.7815 20.8146 25.7608 20.8756 25.7608L23.8983 26.8487C23.9389 26.8487 23.9593 26.8797 23.9593 26.9419C23.9186 26.9833 23.888 27.0041 23.8677 27.0041ZM4.20575 24.9216C4.14469 24.8801 4.12434 24.8491 4.14469 24.8283L4.57213 22.5594C4.57213 22.518 4.60265 22.4972 4.66371 22.4972C4.70442 22.4972 4.72478 22.5282 4.72478 22.5904L4.29734 24.8595C4.25663 24.9009 4.2261 24.9216 4.20575 24.9216ZM6.67876 25.5432C6.63805 25.5432 6.6177 25.5328 6.6177 25.5121L4.60265 22.6215C4.56194 22.5801 4.56194 22.5386 4.60265 22.4972C4.62301 22.4764 4.66371 22.4868 4.72478 22.5282L6.73982 25.4189C6.73982 25.4811 6.72965 25.5225 6.70929 25.5432H6.67876ZM4.66371 22.6526C4.64337 22.6526 4.61283 22.6319 4.57213 22.5904L3.68673 20.2282C3.62566 20.1661 3.63584 20.1349 3.71726 20.1349C3.77832 20.0728 3.80885 20.0831 3.80885 20.1661L4.72478 22.5282C4.72478 22.5904 4.7146 22.6319 4.69425 22.6526H4.66371ZM1.64115 25.2635L1.58009 25.2324C1.53938 25.191 1.53938 25.1495 1.58009 25.108L4.60265 22.4972C4.66371 22.4972 4.70442 22.5076 4.72478 22.5282C4.72478 22.5697 4.7146 22.6008 4.69425 22.6215L1.70221 25.2324L1.64115 25.2635Z" fill="white"></path> <path d="M10.9531 6.92519C10.892 6.92519 10.8615 6.90448 10.8615 6.86303M10.9531 6.92519C10.9938 6.92519 11.0141 6.89411 11.0141 6.83195L10.5562 3.10213C10.5562 3.03996 10.5256 3.01924 10.4646 3.03996C10.4239 3.03996 10.4036 3.06068 10.4036 3.10213M10.9531 6.92519L10.892 6.89411M10.9531 6.92519L10.9837 6.89411L13.365 5.43326C13.4464 5.43326 13.4566 5.40218 13.3955 5.34002C13.3549 5.29858 13.3141 5.28822 13.2735 5.30893L10.892 6.76978C10.8717 6.7905 10.8717 6.83195 10.892 6.89411M10.9531 6.92519H10.9226L9.0907 6.24139M10.9531 6.92519C10.9938 6.92519 11.0141 6.90448 11.0141 6.86303M10.8615 6.86303L10.4036 3.10213M10.8615 6.86303L12.3269 10.9348M10.8615 6.86303C10.8615 6.80086 10.8818 6.76978 10.9226 6.76978C10.9837 6.70762 11.0141 6.71798 11.0141 6.80086L12.4797 10.8726M10.4036 3.10213C10.4036 3.16429 10.4341 3.19537 10.4951 3.19537H14.5558C14.5964 3.19537 14.6169 3.16429 14.6169 3.10213C14.6169 3.06068 14.5964 3.03996 14.5558 3.03996H10.4951C10.4341 3.03996 10.4036 3.06068 10.4036 3.10213ZM7.22832 11.401C7.18761 11.401 7.16725 11.3906 7.16725 11.3699M7.22832 11.401L7.28938 11.3699L11.0141 6.89411C11.0141 6.83195 11.004 6.7905 10.9837 6.76978M7.22832 11.401H7.19778C7.15708 11.3803 7.13673 11.3492 7.13673 11.3077M7.22832 11.401C7.26902 11.401 7.28938 11.3803 7.28938 11.3388M7.22832 11.401C7.20797 11.401 7.17743 11.3803 7.13673 11.3388C7.13673 11.2766 7.15708 11.2456 7.19778 11.2456L9.64026 10.4685C9.70133 10.4685 9.73185 10.4892 9.73185 10.5307C9.75221 10.5514 9.74203 10.5825 9.70133 10.6239L7.22832 11.401ZM7.16725 11.3699C7.12654 11.3492 7.12654 11.3181 7.16725 11.2766M7.16725 11.3699L9.64026 13.2659M7.16725 11.3699C7.1062 11.3699 7.1062 11.3388 7.16725 11.2766M7.16725 11.2766L10.892 6.80086M7.16725 11.2766C7.16725 11.2559 7.19778 11.2456 7.25885 11.2456L9.73185 13.1416M10.892 6.80086C10.9124 6.78015 10.9429 6.76978 10.9837 6.76978M10.892 6.80086C10.8513 6.84231 10.8513 6.87339 10.892 6.89411M10.892 6.80086C10.9327 6.75942 10.9632 6.74906 10.9837 6.76978M10.9837 6.76978L9.15177 6.08598M10.9837 6.76978C11.004 6.76978 11.0141 6.80086 11.0141 6.86303M10.9837 6.76978L12.846 8.29279M7.13673 11.3077L9.02965 6.11706M7.13673 11.3077L6.2208 13.9186M7.13673 11.3077C7.15708 11.2663 7.18761 11.2456 7.22832 11.2456C7.26902 11.2663 7.28938 11.2974 7.28938 11.3388M9.02965 6.11706C9.07036 6.07562 9.11106 6.06526 9.15177 6.08598M9.02965 6.11706C9.02965 6.17922 9.05 6.22067 9.0907 6.24139M9.02965 6.11706L10.4036 3.07104C10.4442 3.0296 10.485 3.01924 10.5256 3.03996M9.15177 6.08598C9.17212 6.08598 9.1823 6.11706 9.1823 6.17922M9.1823 6.17922L7.28938 11.3388M9.1823 6.17922L10.5562 3.13321C10.5562 3.07104 10.5461 3.03996 10.5256 3.03996M9.1823 6.17922L9.12124 6.24139H9.0907M7.28938 11.3388L6.37345 13.9808M10.5256 3.03996C10.5053 3.01924 10.4748 3.0296 10.4341 3.07104C10.3934 3.11249 10.3934 3.14357 10.4341 3.16429L13.2735 5.43326M10.5256 3.03996L13.365 5.30893C13.3854 5.32966 13.3955 5.37111 13.3955 5.43326M13.3346 5.46435C13.3141 5.46435 13.2938 5.45398 13.2735 5.43326M13.3346 5.46435L13.3955 5.43326M13.3346 5.46435C13.3549 5.46435 13.365 5.45917 13.365 5.4488C13.365 5.43844 13.3752 5.43326 13.3955 5.43326M13.3346 5.46435C13.3141 5.46435 13.2836 5.44362 13.2429 5.40218C13.2429 5.34002 13.2633 5.30893 13.304 5.30893L14.9832 4.65622M13.3346 5.46435H13.365L15.0137 4.78055C15.0545 4.78055 15.0748 4.74947 15.0748 4.6873M13.2735 5.43326C13.2531 5.43326 13.2429 5.40218 13.2429 5.34002L14.4641 3.07104C14.5049 3.0296 14.5456 3.01924 14.5863 3.03996C14.627 3.08141 14.6372 3.11249 14.6169 3.13321L13.3955 5.43326M10.892 6.89411L12.7544 8.41712M11.0141 6.86303C11.0141 6.80086 10.9938 6.76978 10.9531 6.76978C10.9327 6.74906 10.9023 6.75942 10.8615 6.80086L9.60973 10.5307M11.0141 6.86303L9.73185 10.5618C9.73185 10.6032 9.7115 10.6239 9.6708 10.6239M14.9221 4.74947C14.9221 4.79091 14.9526 4.81163 15.0137 4.81163C15.0545 4.79091 15.0748 4.74947 15.0748 4.6873M14.9221 4.74947L14.4641 3.13321C14.4641 3.07104 14.4845 3.03996 14.5252 3.03996C14.5863 2.9778 14.6169 2.98816 14.6169 3.07104L15.0748 4.6873M14.9221 4.74947L15.777 6.89411M14.9221 4.74947C14.9221 4.6873 14.9425 4.65622 14.9832 4.65622M15.0748 4.6873C15.034 4.64586 15.0035 4.6355 14.9832 4.65622M15.0748 4.6873L15.9297 6.83195M12.8155 8.44821C12.7951 8.44821 12.7748 8.43784 12.7544 8.41712M12.8155 8.44821L12.8765 8.41712M12.8155 8.44821H12.785M12.8155 8.44821C12.8562 8.44821 12.8765 8.42748 12.8765 8.38604M12.8155 8.44821C12.7951 8.44821 12.7646 8.42748 12.7239 8.38604C12.7239 8.34459 12.7442 8.31352 12.785 8.29279L15.8381 6.80086M12.8155 8.44821H12.846L15.8991 6.95628M12.7544 8.41712C12.6934 8.41712 12.6934 8.38604 12.7544 8.32388M12.7544 8.41712L16.1128 11.401M12.7544 8.41712C12.7137 8.39639 12.7137 8.36532 12.7544 8.32388M12.7544 8.32388L14.9221 4.6873C14.9628 4.64586 15.0035 4.6355 15.0443 4.65622C15.0646 4.67694 15.0748 4.70802 15.0748 4.74947L12.8765 8.41712M12.7544 8.32388C12.7748 8.30315 12.8053 8.29279 12.846 8.29279M12.8765 8.41712C12.8765 8.35496 12.8664 8.31352 12.846 8.29279M12.846 8.29279C12.8053 8.27207 12.7646 8.28243 12.7239 8.32388C12.7239 8.38604 12.7442 8.42748 12.785 8.44821M12.846 8.29279L15.3496 9.22525M12.846 8.29279L16.2044 11.2766M12.785 8.44821C12.7442 8.44821 12.7239 8.41712 12.7239 8.35496M12.785 8.44821L15.2885 9.38065M12.7239 8.35496L13.2429 5.3711C13.2429 5.32966 13.2735 5.30893 13.3346 5.30893C13.3752 5.30893 13.3955 5.34002 13.3955 5.40218L12.8765 8.38604M12.7239 8.35496L12.3269 10.9037C12.3269 10.9658 12.3474 10.9969 12.388 10.9969M12.7239 8.35496C12.7239 8.31352 12.7544 8.29279 12.8155 8.29279C12.8562 8.29279 12.8765 8.32388 12.8765 8.38604M12.8765 8.38604L12.4797 10.9348M12.4186 10.9969H12.388M12.4186 10.9969C12.4593 10.9969 12.4797 10.9762 12.4797 10.9348M12.4186 10.9969C12.3982 10.9969 12.3677 10.9762 12.3269 10.9348M12.4186 10.9969H12.4491M12.388 10.9969L9.6708 10.6239M12.388 10.9969L16.1434 11.401H16.1739M12.388 10.9969C12.3066 10.9969 12.2863 10.9762 12.3269 10.9348M12.4797 10.9348C12.4797 10.914 12.4593 10.8829 12.4186 10.8415L9.6708 10.4685M9.6708 10.6239C9.56902 10.6239 9.54868 10.5928 9.60973 10.5307M9.6708 10.6239H9.64026C9.59956 10.5825 9.58938 10.5514 9.60973 10.5307M9.60973 10.5307C9.60973 10.4892 9.63009 10.4685 9.6708 10.4685M9.6708 10.4685C9.63009 10.4685 9.60973 10.4996 9.60973 10.5618V13.2037C9.60973 13.2659 9.63009 13.297 9.6708 13.297M9.6708 10.4685C9.73186 10.4685 9.76239 10.4892 9.76239 10.5307V13.2037M12.3269 10.9348C12.3269 10.8726 12.3474 10.8415 12.388 10.8415M12.4797 10.8726C12.4797 10.9348 12.4694 10.9762 12.4491 10.9969M12.4797 10.8726C12.4186 10.8311 12.3779 10.8208 12.3575 10.8415L9.64026 13.1416M12.4797 10.8726C12.4797 10.914 12.4694 10.9451 12.4491 10.9658M12.4491 10.9969H12.3269C12.2863 10.9555 12.2863 10.914 12.3269 10.8726H12.3575M12.4491 10.9969V10.9658M13.3346 13.297C13.3141 13.297 13.2836 13.2762 13.2429 13.2348M13.3346 13.297H13.365C13.3854 13.2762 13.3955 13.2348 13.3955 13.1726M13.3346 13.297L13.2735 13.2659C13.2531 13.2037 13.2531 13.1623 13.2735 13.1416L16.1128 11.2456C16.1739 11.2456 16.2146 11.2559 16.2349 11.2766C16.2349 11.3388 16.2248 11.3803 16.2044 11.401M13.3346 13.297L13.365 13.2659L16.2044 11.401M13.2429 13.2348L12.3269 10.9658C12.266 10.9037 12.2761 10.8726 12.3575 10.8726M13.2429 13.2348L14.1588 15.193M13.2429 13.2348C13.2429 13.1934 13.2633 13.1623 13.304 13.1416C13.3243 13.1208 13.3549 13.1312 13.3955 13.1726M12.3575 10.8726C12.4186 10.8104 12.4491 10.8208 12.4491 10.9037L13.3955 13.1726M12.3575 10.8726C12.3779 10.8519 12.4084 10.8519 12.4491 10.8726C12.4694 10.914 12.4694 10.9451 12.4491 10.9658M13.3955 13.1726L14.281 15.1308M16.2044 11.401C16.2248 11.401 16.2349 11.3699 16.2349 11.3077M16.2044 11.401H16.1739M16.2044 11.401H16.1128M16.2044 11.401L17.4562 10.1577C17.4766 10.137 17.4766 10.1059 17.4562 10.0645C17.4155 10.0437 17.3849 10.0437 17.3646 10.0645L16.1128 11.2766C16.0721 11.3181 16.0721 11.3595 16.1128 11.401M16.1739 11.401C16.2146 11.401 16.2349 11.3803 16.2349 11.3388C16.2349 11.2766 16.2146 11.2456 16.1739 11.2456L12.388 10.8415M16.1739 11.401C16.1332 11.401 16.1026 11.3906 16.0823 11.3699L15.2274 9.3185C15.2274 9.27705 15.2477 9.24597 15.2885 9.22525C15.3088 9.20452 15.3394 9.21489 15.3801 9.25632L16.2349 11.3077M16.1739 11.401H16.1128M16.1739 11.401L16.2349 11.3699M12.388 10.8415C12.3677 10.8415 12.3372 10.8622 12.2965 10.9037L11.1974 14.1362M12.388 10.8415C12.4288 10.8622 12.4491 10.9037 12.4491 10.9658M16.2349 11.3077C16.2349 11.2663 16.2044 11.2456 16.1434 11.2456C16.1026 11.287 16.0823 11.3181 16.0823 11.3388L16.693 14.1984C16.693 14.2398 16.7133 14.2605 16.7539 14.2605M16.2349 11.3077L16.8456 14.1672C16.8456 14.188 16.8252 14.219 16.7845 14.2605M15.2885 9.38065H15.319C15.3597 9.38065 15.3801 9.35994 15.3801 9.3185M15.2885 9.38065C15.2477 9.33921 15.2274 9.30814 15.2274 9.28741L15.777 6.86303C15.7973 6.82159 15.8278 6.80086 15.8686 6.80086C15.9093 6.80086 15.9297 6.83195 15.9297 6.89411L15.3801 9.3185M15.2885 9.38065L17.3951 10.1888H17.4257M15.2885 9.38065C15.2477 9.35994 15.2274 9.31849 15.2274 9.25632C15.2682 9.21489 15.3088 9.20452 15.3496 9.22525M15.3496 9.22525C15.3699 9.22525 15.3801 9.25633 15.3801 9.3185M15.3496 9.22525L17.4562 10.0334C17.4766 10.0541 17.4868 10.0955 17.4868 10.1577C17.4868 10.1784 17.4663 10.1888 17.4257 10.1888M15.777 6.89411C15.8177 6.93555 15.8482 6.95628 15.8686 6.95628H15.8991M15.777 6.89411L17.3341 10.1577C17.3544 10.1784 17.3849 10.1888 17.4257 10.1888M15.777 6.89411C15.777 6.85266 15.7973 6.82159 15.8381 6.80086M15.9297 6.83195C15.95 6.87339 15.9398 6.91483 15.8991 6.95628M15.9297 6.83195C15.8889 6.79051 15.8584 6.78015 15.8381 6.80086M15.9297 6.83195L17.4868 10.0955M16.1128 11.401L18.0362 12.4888H18.0668M16.1128 11.401C16.0925 11.3803 16.0823 11.3492 16.0823 11.3077M16.2044 11.2766C16.2248 11.2974 16.2349 11.3284 16.2349 11.3699M16.2044 11.2766C16.1637 11.2352 16.123 11.2456 16.0823 11.3077M16.2044 11.2766L18.1279 12.3334M16.2044 11.2766C16.2858 11.2766 16.296 11.3077 16.2349 11.3699M16.2349 11.3699L14.281 15.193C14.281 15.2344 14.2607 15.2552 14.2199 15.2552M18.0668 12.4888C18.0872 12.4888 18.1075 12.4785 18.1279 12.4578M18.0668 12.4888C18.0261 12.4888 18.0058 12.4681 18.0058 12.4267M18.0668 12.4888H18.0973C18.1381 12.4474 18.1584 12.4163 18.1584 12.3956M16.0823 11.3077L14.1588 15.1308M18.1279 12.3334C18.1482 12.3542 18.1482 12.3956 18.1279 12.4578M18.1279 12.3334C18.0668 12.3334 18.0261 12.3438 18.0058 12.3645L16.693 14.1362C16.6725 14.1568 16.6827 14.188 16.7234 14.2294C16.7234 14.2502 16.7336 14.2605 16.7539 14.2605M18.1279 12.3334C18.1686 12.3749 18.1686 12.4163 18.1279 12.4578M18.1279 12.4578L16.815 14.2294C16.7947 14.2502 16.7744 14.2605 16.7539 14.2605M18.0058 12.4267L17.3341 10.1266C17.3341 10.1059 17.3544 10.0748 17.3951 10.0334C17.4562 10.0334 17.4868 10.0541 17.4868 10.0955M18.0058 12.4267L18.25 16.0633C18.25 16.1047 18.2704 16.1254 18.311 16.1254C18.3721 16.1254 18.4027 16.1047 18.4027 16.0633M18.0058 12.4267C18.0058 12.3645 18.0261 12.3334 18.0668 12.3334C18.1279 12.3334 18.1584 12.3542 18.1584 12.3956M18.0058 12.4267L19.8986 17.1511M18.0058 12.4267C17.9854 12.406 17.9956 12.3749 18.0362 12.3334C18.0973 12.3334 18.1381 12.3542 18.1584 12.3956M17.4868 10.0955L18.1584 12.3956M17.4868 10.0955C17.4868 10.137 17.4766 10.1681 17.4562 10.1888H17.4257M18.1584 12.3956L18.4027 16.0633M18.1584 12.3956L20.0208 17.0889M12.4491 10.9658L9.73185 13.2659M12.4491 10.9658L11.35 14.1984M9.6708 13.297C9.65044 13.2762 9.63009 13.2659 9.60973 13.2659C9.56902 13.2452 9.5792 13.2037 9.64026 13.1416M9.6708 13.297C9.69114 13.297 9.7115 13.2866 9.73185 13.2659M9.6708 13.297C9.73186 13.297 9.76239 13.2659 9.76239 13.2037M9.6708 13.297C9.65044 13.297 9.64026 13.2866 9.64026 13.2659M9.64026 13.1416L7.74734 14.6024M9.64026 13.1416C9.66062 13.1208 9.69115 13.1312 9.73185 13.1726C9.75221 13.2141 9.75221 13.2452 9.73185 13.2659M9.73185 13.2659C9.77257 13.2244 9.77257 13.183 9.73185 13.1416M9.73185 13.2659L7.83893 14.7268M9.76239 13.2037C9.72168 13.1416 9.69114 13.1208 9.6708 13.1416L6.28186 13.8875C6.24114 13.8875 6.2208 13.9082 6.2208 13.9497C6.2208 13.9911 6.25133 14.0119 6.31238 14.0119M9.76239 13.2037C9.76239 13.2244 9.74204 13.2555 9.70133 13.297L6.31238 14.0119M9.64026 13.2659L11.2279 14.2294C11.2279 14.2502 11.238 14.2605 11.2585 14.2605M9.64026 13.2659C9.55885 13.2659 9.54868 13.2348 9.60973 13.1726C9.65044 13.1312 9.69115 13.1208 9.73185 13.1416M9.73185 13.1416L11.3194 14.1051C11.3399 14.1258 11.3399 14.1672 11.3194 14.2294C11.2991 14.2502 11.2788 14.2605 11.2585 14.2605M11.2585 14.2605H11.2279C11.1871 14.219 11.177 14.1776 11.1974 14.1362M11.2585 14.2605C11.2788 14.2605 11.3093 14.2398 11.35 14.1984M11.1974 14.1362L10.2509 16.1876C10.1898 16.2498 10.2 16.2808 10.2814 16.2808M11.1974 14.1362C11.238 14.0948 11.2686 14.0844 11.2889 14.1051C11.3296 14.1258 11.35 14.1568 11.35 14.1984M11.35 14.1984L10.373 16.2498M6.31238 14.0119H6.28186M6.31238 14.0119C6.3531 14.0119 6.37345 14.0015 6.37345 13.9808M6.28186 14.0119C6.24114 14.0119 6.2208 13.9808 6.2208 13.9186M6.28186 14.0119L7.74734 14.7268M6.2208 13.9186L5.15221 16.3741M6.2208 13.9186C6.2615 13.8772 6.30221 13.8668 6.34292 13.8875M6.37345 13.9808C6.37345 13.9186 6.36328 13.8875 6.34292 13.8875M6.37345 13.9808L5.27434 16.4363M5.21327 16.4673H5.18274C5.14204 16.4259 5.13186 16.3948 5.15221 16.3741M5.21327 16.4673C5.25398 16.4673 5.27434 16.4569 5.27434 16.4363M5.21327 16.4673C5.19292 16.4673 5.17257 16.4569 5.15221 16.4363M5.21327 16.4673H5.27434L7.83893 14.7268M5.21327 16.4673L8.05265 16.716M5.21327 16.4673C5.17257 16.4673 5.15221 16.4466 5.15221 16.4051C5.15221 16.343 5.17257 16.3119 5.21327 16.3119L8.05265 16.5605M5.15221 16.3741L4.32787 18.2079M5.15221 16.3741C5.15221 16.3326 5.18274 16.3119 5.24381 16.3119C5.28451 16.3534 5.29469 16.3948 5.27434 16.4363M6.34292 13.8875L7.80841 14.5713C7.84912 14.592 7.86946 14.6335 7.86946 14.6956C7.84912 14.7164 7.81858 14.7268 7.77788 14.7268M5.27434 16.4363L4.48053 18.27M5.15221 16.4363C5.09115 16.3741 5.10133 16.343 5.18274 16.343M5.15221 16.4363L6.31238 18.5809C6.31238 18.6223 6.33274 18.6431 6.37345 18.6431C6.39381 18.6431 6.40398 18.6327 6.40398 18.6119C6.4854 18.6119 6.49557 18.5809 6.43451 18.5187M5.18274 16.343L7.74734 14.6024M5.18274 16.343C5.24381 16.2808 5.27434 16.2912 5.27434 16.3741L6.43451 18.5187M7.74734 14.6024C7.80841 14.5402 7.83893 14.5402 7.83893 14.6024M7.74734 14.6024C7.66593 14.6024 7.65575 14.6335 7.71681 14.6956C7.73717 14.7164 7.75752 14.7268 7.77788 14.7268M7.83893 14.6024C7.87965 14.6438 7.87965 14.6852 7.83893 14.7268M7.83893 14.6024C7.77788 14.5817 7.73717 14.5817 7.71681 14.6024C7.69646 14.6438 7.70664 14.6852 7.74734 14.7268M7.83893 14.6024L10.3425 16.1565C10.4036 16.1772 10.4137 16.2083 10.373 16.2498M7.83893 14.7268H7.77788M7.77788 14.7268H7.74734M7.77788 14.7268C7.73717 14.7268 7.71681 14.706 7.71681 14.6646M7.77788 14.7268H7.80841L11.2889 14.2605C11.3296 14.2605 11.35 14.2294 11.35 14.1672C11.35 14.1258 11.3194 14.1051 11.2585 14.1051L7.77788 14.5713M7.74734 14.7268L10.2814 16.2808M7.71681 14.6646C7.71681 14.6024 7.73717 14.5713 7.77788 14.5713M7.71681 14.6646L7.9916 16.6538M7.77788 14.5713C7.83893 14.5713 7.86946 14.592 7.86946 14.6335L8.14425 16.6227M10.2814 16.2808C10.2814 16.3016 10.2916 16.3119 10.3119 16.3119C10.3527 16.3119 10.373 16.2912 10.373 16.2498M8.05265 16.716C8.01194 16.716 7.9916 16.6952 7.9916 16.6538M8.05265 16.716C8.11372 16.716 8.14425 16.6849 8.14425 16.6227M8.05265 16.716C8.11372 16.716 8.14425 16.6952 8.14425 16.6538C8.14425 16.5917 8.11372 16.5605 8.05265 16.5605M8.05265 16.716H8.08318L10.3425 16.2808C10.3832 16.2394 10.4036 16.2083 10.4036 16.1876C10.4036 16.1254 10.373 16.1047 10.3119 16.1254L8.05265 16.5605M7.9916 16.6538C7.93053 16.5917 7.95088 16.5605 8.05265 16.5605M7.9916 16.6538L8.35796 19.2336M8.14425 16.6227C8.10354 16.5813 8.07301 16.5605 8.05265 16.5605M8.14425 16.6227L8.51062 19.2336M9.64026 17.9903H9.60973M9.64026 17.9903C9.68097 17.9903 9.7115 17.98 9.73185 17.9592L10.4036 16.2186C10.4036 16.1565 10.3934 16.1254 10.373 16.1254C10.3323 16.1047 10.2916 16.115 10.2509 16.1565L9.5792 17.8971C9.5792 17.9592 9.58938 17.9903 9.60973 17.9903M9.64026 17.9903C9.59956 17.9903 9.5792 17.9696 9.5792 17.9282M9.64026 17.9903H9.6708L12.0217 17.8038M9.64026 17.9903C9.68097 17.9903 9.70133 17.98 9.70133 17.9592C9.72168 17.9385 9.72168 17.9074 9.70133 17.866M9.60973 17.9903L8.02212 16.716C7.96106 16.6745 7.95088 16.6331 7.9916 16.5917M9.5792 17.9282C9.5792 17.866 9.59956 17.835 9.64026 17.835M9.5792 17.9282L10.0677 19.9484C10.1084 19.9899 10.1389 20.0106 10.1593 20.0106M9.5792 17.9282C9.5792 17.8867 9.59956 17.8556 9.64026 17.835M9.64026 17.835L12.0217 17.6484M9.64026 17.835C9.66062 17.835 9.69115 17.8556 9.73185 17.8971L10.2204 19.9174C10.2204 19.9796 10.2 20.0106 10.1593 20.0106M12.0217 17.6484C12.0624 17.6484 12.0827 17.6795 12.0827 17.7416M12.0217 17.6484C11.981 17.6484 11.9504 17.6795 11.9301 17.7416M12.0217 17.6484L15.2274 17.835C15.2682 17.835 15.2885 17.866 15.2885 17.9282C15.2885 17.9696 15.258 17.9903 15.1969 17.9903M12.0217 17.6484C12.0827 17.6899 12.1031 17.721 12.0827 17.7416M12.0827 17.7416C12.1235 17.7831 12.1031 17.8038 12.0217 17.8038M12.0827 17.7416L11.8079 20.0728M12.0217 17.8038L15.1969 17.9903M12.0217 17.8038C11.9606 17.8038 11.9301 17.7831 11.9301 17.7416M15.1969 17.9903C15.1562 17.9903 15.1359 17.98 15.1359 17.9592L14.1588 15.193M15.1969 17.9903H15.2274C15.2682 17.9903 15.2885 17.9592 15.2885 17.8971M15.1969 17.9903H15.1663M15.1969 17.9903C15.2376 17.9903 15.2682 17.98 15.2885 17.9592L16.2349 16.4363M11.9301 17.7416L11.6553 20.0417C11.6553 20.1039 11.6858 20.1349 11.7469 20.1349M14.1588 15.193C14.0978 15.1308 14.1079 15.0997 14.1894 15.0997M14.1588 15.193C14.1588 15.2344 14.1792 15.2552 14.2199 15.2552M14.1588 15.193C14.1385 15.1722 14.1487 15.1412 14.1894 15.0997M14.1894 15.0997C14.2504 15.0997 14.281 15.1101 14.281 15.1308M14.1894 15.0997L16.7234 14.1051M14.281 15.1308L15.2885 17.8971M14.281 15.1308C14.3013 15.1722 14.2912 15.2136 14.2504 15.2552M15.2885 17.8971C15.2885 17.8556 15.258 17.835 15.1969 17.835C15.1562 17.835 15.1359 17.866 15.1359 17.9282L15.4411 20.6323C15.4615 20.6737 15.4921 20.6945 15.5327 20.6945M15.2885 17.8971L15.5938 20.6323M14.2199 15.2552H14.2504M14.2199 15.2552H14.1894C14.1283 15.2136 14.1182 15.1722 14.1588 15.1308M14.2504 15.2552L16.7845 14.2605M7.9916 16.5917C8.0323 16.5502 8.07301 16.5502 8.11372 16.5917M7.9916 16.5917L6.31238 18.4876C6.31238 18.5498 6.32257 18.5913 6.34292 18.6119H6.43451M8.11372 16.5917L9.70133 17.866M8.11372 16.5917C8.13406 16.6331 8.13406 16.6642 8.11372 16.6849L6.43451 18.6119M9.70133 17.866C9.64026 17.8038 9.60973 17.8038 9.60973 17.866L8.38849 19.1715C8.34778 19.2129 8.34778 19.2543 8.38849 19.2958H8.51062L9.70133 17.9903C9.74204 17.9489 9.74204 17.9074 9.70133 17.866ZM8.44956 19.2958C8.40885 19.2958 8.37832 19.275 8.35796 19.2336M8.44956 19.2958C8.53097 19.2958 8.55133 19.275 8.51062 19.2336M8.44956 19.2958H8.41902M8.44956 19.2958C8.49026 19.2958 8.51062 19.2854 8.51062 19.2647C8.53097 19.2025 8.5208 19.1715 8.48009 19.1715M8.35796 19.2336L7.9 22.2175M8.35796 19.2336C8.39868 19.1715 8.4292 19.1507 8.44956 19.1715C8.53097 19.1715 8.55133 19.1921 8.51062 19.2336M8.51062 19.2336L8.02212 22.2485C8.02212 22.2899 8.00177 22.3107 7.96106 22.3107M8.41902 19.2958L6.37345 18.6119M8.41902 19.2958L10.1288 20.0106M8.41902 19.2958C8.33761 19.2958 8.32744 19.2647 8.38849 19.2025C8.38849 19.1197 8.41902 19.1093 8.48009 19.1715M6.37345 18.6119C6.33274 18.6119 6.31238 18.5809 6.31238 18.5187C6.31238 18.4358 6.34292 18.4255 6.40398 18.4876L8.48009 19.1715M6.37345 18.6119L4.38894 18.3322M6.37345 18.6119C6.43451 18.6119 6.46505 18.5913 6.46505 18.5498M8.48009 19.1715L10.1898 19.8552C10.2102 19.876 10.2204 19.9174 10.2204 19.9796M6.43451 18.6119C6.45486 18.5913 6.45486 18.5601 6.43451 18.5187M6.43451 18.6119L3.77831 20.2593L3.74778 20.2904M4.38894 18.3322H4.35841C4.3177 18.2908 4.30753 18.2494 4.32787 18.2079M4.38894 18.3322C4.40929 18.3322 4.43982 18.3115 4.48053 18.27M4.38894 18.3322C4.34823 18.3322 4.32787 18.3012 4.32787 18.239C4.32787 18.1975 4.35841 18.1768 4.41947 18.1768M4.32787 18.2079L4.02257 19.0782M4.32787 18.2079C4.32787 18.125 4.35841 18.1147 4.41947 18.1768M4.48053 18.27C4.48053 18.2079 4.46018 18.1768 4.41947 18.1768M4.48053 18.27L4.14469 19.1403M4.41947 18.1768L6.40398 18.4566C6.44469 18.498 6.46505 18.5291 6.46505 18.5498M6.46505 18.5498C6.46505 18.5083 6.43451 18.4876 6.37345 18.4876C6.33274 18.4876 6.31238 18.5083 6.31238 18.5498L6.25133 20.2282C6.25133 20.2904 6.27168 20.3215 6.31238 20.3215M6.46505 18.5498L6.40398 20.2593M3.74778 20.2904L3.68673 20.2593C3.66637 20.1971 3.67655 20.1557 3.71726 20.1349M3.74778 20.2904H3.71726C3.67655 20.2489 3.66637 20.2179 3.68673 20.1971L4.02257 19.0782M3.74778 20.2904C3.7885 20.2904 3.80885 20.2697 3.80885 20.2282M3.74778 20.2904L6.31238 20.3215M3.74778 20.2904C3.68673 20.2904 3.65619 20.2593 3.65619 20.1971C3.65619 20.1557 3.68673 20.1349 3.74778 20.1349L6.31238 20.1661M3.71726 20.1349L6.34292 18.4876C6.40398 18.4255 6.43451 18.4358 6.43451 18.5187M3.71726 20.1349C3.63584 20.1349 3.62566 20.1661 3.68673 20.2282L4.57213 22.5904C4.61283 22.6319 4.64337 22.6526 4.66371 22.6526M3.71726 20.1349C3.77832 20.0728 3.80885 20.0831 3.80885 20.1661L4.72478 22.5282M4.02257 19.0782C4.02257 19.0367 4.0531 19.0264 4.11416 19.0471C4.15487 19.0471 4.16505 19.0782 4.14469 19.1403M4.02257 19.0782C3.9615 19.1403 3.97168 19.1715 4.0531 19.1715H4.08363C4.12434 19.1715 4.14469 19.1611 4.14469 19.1403M4.14469 19.1403L3.80885 20.2282M3.80885 20.2282C3.82921 20.2075 3.81903 20.1765 3.77831 20.1349C3.71726 20.0728 3.68673 20.0831 3.68673 20.1661L2.46549 23.1499M3.80885 20.2282L2.61814 23.2121M6.31238 20.3215C6.29204 20.3215 6.28186 20.3163 6.28186 20.3059C6.28186 20.2956 6.27168 20.2904 6.25133 20.2904M6.31238 20.3215H6.34292L8.48009 19.2958C8.5615 19.2958 8.57168 19.2647 8.51062 19.2025C8.51062 19.1197 8.48009 19.1093 8.41902 19.1715L6.28186 20.1661C6.2615 20.1867 6.25133 20.2282 6.25133 20.2904M6.31238 20.3215C6.37345 20.3215 6.40398 20.3007 6.40398 20.2593M6.25133 20.2904L7.9 22.2797M6.25133 20.2904C6.25133 20.2282 6.2615 20.1971 6.28186 20.1971C6.30221 20.1765 6.33274 20.1765 6.37345 20.1971L8.02212 22.1863C8.06284 22.2279 8.06284 22.2693 8.02212 22.3107H7.96106M6.40398 20.2593C6.40398 20.1971 6.37345 20.1661 6.31238 20.1661M6.31238 20.1661C6.27168 20.1661 6.25133 20.1971 6.25133 20.2593L6.58717 25.4811C6.58717 25.5225 6.6177 25.5432 6.67876 25.5432M6.31238 20.1661C6.37345 20.1661 6.40398 20.1867 6.40398 20.2282L6.73982 25.4811M2.46549 23.1499C2.46549 23.2121 2.48584 23.2535 2.52655 23.2743H2.55707C2.59779 23.2743 2.61814 23.2535 2.61814 23.2121M2.46549 23.1499L1.58009 25.1392M2.46549 23.1499C2.50619 23.1084 2.5469 23.0981 2.58761 23.1188C2.62832 23.1603 2.6385 23.1913 2.61814 23.2121M2.61814 23.2121L1.70221 25.2013M7.96106 22.3107C7.9407 22.3107 7.92036 22.3003 7.9 22.2797M7.96106 22.3107C7.9407 22.3107 7.91018 22.2899 7.86946 22.2485C7.86946 22.1863 7.9 22.1553 7.96106 22.1553L9.9761 21.9377C10.0372 21.9377 10.0677 21.9688 10.0677 22.031M7.96106 22.3107L10.0066 22.0931M7.96106 22.3107C7.87964 22.3107 7.85929 22.2797 7.9 22.2175M7.96106 22.3107C7.98141 22.3107 8.00177 22.3003 8.02212 22.2797M7.9 22.2797C7.85929 22.2589 7.85929 22.2279 7.9 22.1863L10.0982 19.8864M10.0677 22.031C10.0677 22.0724 10.0473 22.0931 10.0066 22.0931M10.0677 22.031L10.2204 19.9484C10.2204 19.8864 10.2 19.8552 10.1593 19.8552M10.0066 22.0931H9.9761M13.5177 22.3107L9.9761 22.0931M13.5177 22.3107C13.5788 22.3107 13.6092 22.2899 13.6092 22.2485C13.6092 22.1863 13.5788 22.1553 13.5177 22.1553M13.5177 22.3107C13.477 22.3107 13.4566 22.2899 13.4566 22.2485C13.4566 22.1863 13.477 22.1553 13.5177 22.1553M13.5177 22.3107L16.9372 22.0931M13.5177 22.3107C13.4974 22.3107 13.4872 22.3003 13.4872 22.2797L12.3575 21.1607M13.5177 22.3107C13.5584 22.3107 13.5788 22.3003 13.5788 22.2797C13.5991 22.2589 13.5991 22.2279 13.5788 22.1863L12.4797 21.0364C12.4389 20.9949 12.3982 20.9949 12.3575 21.0364C12.3168 21.0778 12.3168 21.1192 12.3575 21.1607M13.5177 22.3107C13.4974 22.3107 13.477 22.3003 13.4566 22.2797C13.4363 22.2589 13.4464 22.2279 13.4872 22.1863L15.4716 20.5701M13.5177 22.3107H13.5788L15.5938 20.6945M9.9761 22.0931C9.9354 22.0931 9.91504 22.0724 9.91504 22.031M9.91504 22.031C9.91504 21.9688 9.94557 21.9377 10.0066 21.9377L13.5177 22.1553M9.91504 22.031L10.0677 19.9174M13.5177 22.1553L16.9372 21.9377M16.9372 21.9377C16.9982 21.9377 17.0287 21.9688 17.0287 22.031M16.9372 21.9377C16.8964 21.9377 16.8761 21.9688 16.8761 22.031M16.9372 21.9377L19.5323 22.1553M17.0287 22.031C17.0287 22.0724 16.9982 22.0931 16.9372 22.0931M17.0287 22.031L17.1814 19.2336C17.2018 19.2129 17.1814 19.1818 17.1204 19.1403M16.9372 22.0931L19.5323 22.3107M16.9372 22.0931C16.8964 22.0931 16.8761 22.0724 16.8761 22.031M17.7005 24.1446C17.6597 24.1446 17.6292 24.1342 17.6088 24.1134M17.7005 24.1446H17.731C17.8124 24.1446 17.8225 24.1134 17.7615 24.0512M17.7005 24.1446C17.6597 24.1446 17.6394 24.1342 17.6394 24.1134C17.5986 24.0928 17.5986 24.0616 17.6394 24.0202L19.4713 22.1863M17.7005 24.1446L17.731 24.1134L19.5933 22.2797M17.6088 24.1134L16.8761 22.062C16.815 21.9998 16.8252 21.9688 16.9067 21.9688C16.9473 21.948 16.9881 21.9584 17.0287 21.9998L17.7615 24.0512M17.6088 24.1134L18.8911 26.9419M17.6088 24.1134C17.6088 24.0512 17.6292 24.0098 17.6699 23.9891C17.7106 23.9891 17.7411 24.0098 17.7615 24.0512M17.7615 24.0512L19.0438 26.8797C19.0438 26.9419 19.0234 26.9729 18.9828 26.9729C18.9828 26.9937 18.9726 27.0041 18.9522 27.0041M18.9522 27.0041C18.9115 27.0041 18.8911 26.9833 18.8911 26.9419M18.9522 27.0041H23.8677M18.9522 27.0041C18.9115 27.0041 18.8911 26.9729 18.8911 26.9108C18.8911 26.8694 18.9115 26.8487 18.9522 26.8487H23.8677C23.9288 26.8487 23.9593 26.8694 23.9593 26.9108C23.9593 26.9729 23.9288 27.0041 23.8677 27.0041M18.9522 27.0041L18.8911 26.9419M18.9522 27.0041C18.9726 27.0041 18.9929 26.9937 19.0133 26.9729L23.0128 24.704C23.0331 24.6833 23.0434 24.6418 23.0434 24.5796C23.023 24.559 22.9823 24.5486 22.9213 24.5486L18.9217 26.8487C18.881 26.8901 18.8708 26.9211 18.8911 26.9419M18.9522 27.0041C18.9115 26.9833 18.8911 26.9419 18.8911 26.8797L19.6239 24.4553C19.6239 24.4139 19.6544 24.3932 19.7155 24.3932M18.9522 27.0041C18.9726 27.0041 19.0031 26.9833 19.0438 26.9419L19.7766 24.4864M7.13673 23.958C7.13673 23.9995 7.15708 24.0306 7.19778 24.0512H7.22832C7.26902 24.0512 7.28938 24.041 7.28938 24.0202M7.13673 23.958L7.9 22.2175M7.13673 23.958L6.58717 25.4499M7.13673 23.958C7.15708 23.9166 7.19778 23.8959 7.25885 23.8959C7.29956 23.9373 7.30973 23.9788 7.28938 24.0202M7.9 22.2175C7.9 22.176 7.93053 22.1553 7.9916 22.1553C8.0323 22.1967 8.04248 22.2381 8.02212 22.2797M8.02212 22.2797L7.28938 24.0202M8.02212 22.2797L10.1898 19.9796C10.2102 19.9588 10.2102 19.9278 10.1898 19.8864C10.1491 19.8656 10.1186 19.8656 10.0982 19.8864M7.28938 24.0202L6.73982 25.5121M6.67876 25.5432H6.64823M6.67876 25.5432C6.71946 25.5432 6.73982 25.5328 6.73982 25.5121M6.67876 25.5432C6.71946 25.5432 6.73982 25.5121 6.73982 25.4499C6.73982 25.4085 6.70929 25.3879 6.64823 25.3879L1.06106 26.8487C1.02035 26.8487 1 26.8797 1 26.9419C1.04071 26.9833 1.07124 27.0041 1.09159 27.0041M6.67876 25.5432L1.09159 27.0041M6.67876 25.5432C6.71946 25.5432 6.73982 25.5225 6.73982 25.4811M6.67876 25.5432C6.63805 25.5432 6.6177 25.5328 6.6177 25.5121L4.60265 22.6215C4.56194 22.5801 4.56194 22.5386 4.60265 22.4972M6.67876 25.5432H6.70929C6.72965 25.5225 6.73982 25.4811 6.73982 25.4189L4.72478 22.5282M6.64823 25.5432C6.60752 25.5432 6.58717 25.5121 6.58717 25.4499M6.64823 25.5432L4.20575 24.9216M6.58717 25.4499L6.00708 26.8797C6.00708 26.9419 6.02743 26.9729 6.06814 26.9729C6.10885 26.9729 6.13938 26.9627 6.15973 26.9419L6.73982 25.5121M6.58717 25.4499C6.62788 25.4085 6.66858 25.3879 6.70929 25.3879C6.72965 25.4085 6.73982 25.4499 6.73982 25.5121M1.09159 27.0041L6.09867 27.0351C6.13938 27.0351 6.15973 27.0144 6.15973 26.9729C6.15973 26.9108 6.13938 26.8797 6.09867 26.8797L1.09159 26.8487C1.03053 26.8487 1 26.8694 1 26.9108C1 26.9729 1.03053 27.0041 1.09159 27.0041ZM1.09159 27.0041H1.06106C1.02035 26.9627 1 26.9211 1 26.8797L1.58009 25.1392M1.09159 27.0041C1.1323 27.0041 1.15265 26.9833 1.15265 26.9419L1.70221 25.2013M1.09159 27.0041L1.03053 26.9729C1.01018 26.9108 1.01018 26.8693 1.03053 26.8487L4.17522 24.7661C4.19558 24.7454 4.2261 24.7558 4.26681 24.7973C4.32787 24.8595 4.32787 24.8905 4.26681 24.8905L1.12212 26.9729L1.09159 27.0041ZM1.58009 25.1392C1.58009 25.0977 1.61062 25.0874 1.67168 25.108C1.7531 25.108 1.76327 25.1392 1.70221 25.2013M1.58009 25.1392C1.51902 25.2013 1.52921 25.2324 1.61062 25.2324L1.64115 25.2635M1.70221 25.2013C1.70221 25.2428 1.68186 25.2635 1.64115 25.2635M1.64115 25.2635C1.60044 25.2635 1.56991 25.2324 1.54955 25.1702C1.54955 25.1288 1.58009 25.108 1.64115 25.108L4.20575 24.7661C4.2261 24.7661 4.25663 24.7869 4.29734 24.8283C4.29734 24.8905 4.26681 24.9216 4.20575 24.9216M1.64115 25.2635L4.20575 24.9216M1.64115 25.2635L1.58009 25.2324C1.53938 25.191 1.53938 25.1495 1.58009 25.108L4.60265 22.4972M1.64115 25.2635L1.70221 25.2324L4.69425 22.6215C4.7146 22.6008 4.72478 22.5697 4.72478 22.5282M4.20575 24.9216C4.14469 24.8801 4.12434 24.8491 4.14469 24.8283M4.20575 24.9216C4.2261 24.9216 4.25663 24.9009 4.29734 24.8595L4.72478 22.5904C4.72478 22.5282 4.70442 22.4972 4.66371 22.4972C4.60265 22.4972 4.57213 22.518 4.57213 22.5594L4.14469 24.8283M4.14469 24.8283C4.14469 24.7869 4.17522 24.7661 4.23629 24.7661L6.67876 25.3879C6.71946 25.4085 6.73982 25.4396 6.73982 25.4811M4.66371 22.6526H4.63318C4.57213 22.6112 4.56194 22.5697 4.60265 22.5282L6.25133 20.1971C6.27168 20.1765 6.31238 20.1661 6.37345 20.1661C6.41416 20.2075 6.41416 20.2489 6.37345 20.2904L4.72478 22.6215C4.72478 22.6422 4.70442 22.6526 4.66371 22.6526ZM4.66371 22.6526H4.69425C4.7146 22.6319 4.72478 22.5904 4.72478 22.5282M10.0982 19.8864C10.0575 19.9278 10.0575 19.9692 10.0982 20.0106H10.1593M10.0982 19.8864L11.9606 17.6795M10.1593 20.0106H10.1288M10.1593 20.0106C10.2 20.0106 10.2204 20.0003 10.2204 19.9796M10.1593 20.0106L10.2204 19.9796M10.1288 20.0106L11.7469 20.1349M10.1288 20.0106C10.0881 20.0106 10.0677 19.9796 10.0677 19.9174M10.2204 19.9796L12.0827 17.8038C12.1235 17.7624 12.1235 17.721 12.0827 17.6795M10.0677 19.9174C10.0677 19.876 10.0982 19.8552 10.1593 19.8552M10.1593 19.8552L11.7469 19.9796C11.8079 19.9796 11.8283 20.0106 11.8079 20.0728M11.9606 17.6795C12.0013 17.6381 12.042 17.6381 12.0827 17.6795M11.9606 17.6795C11.9199 17.721 11.9199 17.7624 11.9606 17.8038L13.7314 19.2958M12.0827 17.6795L13.823 19.1715M11.7469 20.1349C11.7876 20.1349 11.8079 20.1143 11.8079 20.0728M11.7469 20.1349C11.7062 20.1349 11.6858 20.1246 11.6858 20.1039M11.7469 20.1349H11.7775L13.7925 19.2958C13.8332 19.2958 13.8536 19.2647 13.8536 19.2025C13.8128 19.1611 13.7722 19.1507 13.7314 19.1715M12.4186 21.1917L12.3575 21.1607M12.4186 21.1917L12.4491 21.1607C12.4898 21.1192 12.5 21.0881 12.4797 21.0674M12.4186 21.1917C12.3982 21.1917 12.3677 21.1711 12.3269 21.1296C12.3269 21.0674 12.3575 21.0364 12.4186 21.0364L15.5327 20.539C15.5735 20.539 15.5938 20.5701 15.5938 20.6323M12.4186 21.1917L15.5327 20.6945M12.3575 21.1607L11.6858 20.1039M11.6858 20.1039C11.6248 20.0417 11.635 20.0106 11.7164 20.0106C11.7367 19.9899 11.7673 19.9899 11.8079 20.0106L12.4797 21.0674M11.6858 20.1039C11.6655 20.0625 11.6756 20.021 11.7164 19.9796L13.7314 19.1715M12.4797 21.0674C12.4797 20.9846 12.4491 20.9742 12.388 21.0364L9.88452 21.9688C9.8438 21.9688 9.82345 21.9998 9.82345 22.062C9.84381 22.0828 9.87433 22.0931 9.91504 22.0931L12.4491 21.1917C12.4898 21.1503 12.5 21.1089 12.4797 21.0674ZM13.7314 19.1715C13.7111 19.1921 13.7009 19.2336 13.7009 19.2958H13.823M13.7314 19.1715L15.1663 17.866C15.1868 17.8452 15.2173 17.8452 15.2579 17.866M13.823 19.2958H13.7314M13.823 19.2958C13.8637 19.2543 13.8637 19.2129 13.823 19.1715M13.823 19.2958L15.2579 17.9903C15.2987 17.9489 15.2987 17.9074 15.2579 17.866M13.7314 19.2958L15.4716 20.6945M13.7314 19.2958C13.6907 19.2543 13.6805 19.2129 13.7009 19.1715C13.7416 19.1299 13.7823 19.1299 13.823 19.1715M13.823 19.1715L15.5938 20.5701M15.2579 17.866C15.2173 17.8246 15.1765 17.8246 15.1359 17.866M15.2579 17.866L17.1509 19.1715C17.212 19.1921 17.2221 19.2233 17.1814 19.2647C17.1814 19.2854 17.161 19.2958 17.1204 19.2958M15.5938 20.6945H15.4716M15.5938 20.6945C15.6142 20.6323 15.6142 20.5909 15.5938 20.5701M15.5938 20.6945C15.6142 20.6737 15.6142 20.6323 15.5938 20.5701M15.5938 20.6945L17.1814 19.2958C17.2221 19.2543 17.2221 19.2129 17.1814 19.1715M15.4716 20.6945L16.9067 22.0931H16.9982C17.0389 22.0517 17.0389 22.0102 16.9982 21.9688L15.5938 20.5701M15.4716 20.6945C15.431 20.653 15.431 20.6115 15.4716 20.5701M15.5938 20.5701C15.5735 20.5494 15.5327 20.5494 15.4716 20.5701M15.5938 20.5701C15.5531 20.5287 15.5124 20.5287 15.4716 20.5701M15.5938 20.6323C15.6345 20.6737 15.6141 20.6945 15.5327 20.6945M15.4716 20.5701L17.0593 19.1715M17.0593 19.1715C17.1 19.1299 17.1407 19.1299 17.1814 19.1715M17.0593 19.1715C17.0186 19.2129 17.0186 19.244 17.0593 19.2647M17.1814 19.1715L19.5933 22.1863M17.1204 19.2958H17.0898L15.1663 17.9903M17.1204 19.2958C17.0796 19.2958 17.0593 19.2854 17.0593 19.2647M17.1204 19.2958H17.1509C17.2323 19.2958 17.2424 19.2647 17.1814 19.2025L16.2349 16.3741C16.2349 16.3326 16.2044 16.3119 16.1434 16.3119M17.1204 19.2958C17.0593 19.2958 17.0287 19.275 17.0287 19.2336M17.1204 19.2958H19.5323M15.1663 17.9903C15.146 17.9696 15.1359 17.9282 15.1359 17.866M15.1359 17.866L16.1128 16.343M16.1128 16.343C16.1128 16.2808 16.1434 16.2808 16.2044 16.343M16.1128 16.343C16.0721 16.3844 16.0721 16.4259 16.1128 16.4673M16.1128 16.343C16.1332 16.3222 16.1637 16.3222 16.2044 16.343M16.2044 16.343C16.2248 16.343 16.2349 16.3741 16.2349 16.4363M16.2044 16.343L14.2504 15.0997C14.2301 15.079 14.1996 15.0894 14.1588 15.1308M16.2044 16.343L19.5933 19.1715C19.6544 19.1715 19.6544 19.2025 19.5933 19.2647C19.5933 19.2854 19.573 19.2958 19.5323 19.2958M16.2349 16.4363L16.1739 16.4673M16.1739 16.4673H16.1128M16.1739 16.4673H16.1434C16.1026 16.4673 16.0823 16.4363 16.0823 16.3741L16.693 14.1672C16.693 14.1258 16.7234 14.1051 16.7845 14.1051C16.8252 14.1051 16.8456 14.1362 16.8456 14.1984L16.2349 16.4051C16.2349 16.4466 16.2146 16.4673 16.1739 16.4673ZM16.1739 16.4673C16.1128 16.4673 16.0823 16.4466 16.0823 16.4051C16.0823 16.343 16.1026 16.3119 16.1434 16.3119M16.1739 16.4673L18.3416 16.1254C18.3823 16.1254 18.4027 16.1047 18.4027 16.0633M16.1128 16.4673L14.1894 15.224C14.1079 15.224 14.0978 15.193 14.1588 15.1308M16.1128 16.4673L19.5018 19.2647C19.5018 19.2854 19.5119 19.2958 19.5323 19.2958M16.7539 14.2605H16.7845M16.7845 14.2605C16.8252 14.219 16.8456 14.1776 16.8456 14.1362C16.8048 14.0948 16.7642 14.0844 16.7234 14.1051M16.7234 14.1051C16.6624 14.1672 16.6522 14.2087 16.693 14.2294L18.25 16.1254H18.3721C18.4129 16.084 18.4129 16.0425 18.3721 16.0011L16.815 14.1362C16.7947 14.1154 16.7642 14.1051 16.7234 14.1051ZM16.1434 16.3119L18.311 15.97C18.3315 15.97 18.3619 16.0011 18.4027 16.0633M16.1434 16.3119C16.1026 16.3534 16.0823 16.3948 16.0823 16.4363L17.0593 19.2647M19.9597 17.1822H19.9292L18.2805 16.1254C18.2398 16.084 18.2296 16.0529 18.25 16.0321C18.2704 15.97 18.3009 15.9597 18.3416 16.0011L19.9903 17.0579C20.0717 17.0579 20.0818 17.0889 20.0208 17.1511C20.0208 17.1718 20.0004 17.1822 19.9597 17.1822ZM19.9597 17.1822C19.919 17.1822 19.8986 17.1718 19.8986 17.1511M19.9597 17.1822H19.9903C20.0309 17.1407 20.0411 17.1097 20.0208 17.0889M19.8986 17.1511L21.2115 20.1971M19.8986 17.1511C19.8783 17.1097 19.8885 17.0683 19.9292 17.0267C19.9903 17.0267 20.0208 17.0475 20.0208 17.0889M20.0208 17.0889L21.3642 20.1349M17.0593 19.2647L19.4713 22.2797C19.4916 22.3003 19.5119 22.3107 19.5323 22.3107M19.5323 19.2958C19.4916 19.2958 19.4713 19.275 19.4713 19.2336L18.25 16.0943C18.189 16.0321 18.1991 16.0011 18.2805 16.0011C18.3416 15.9803 18.3721 15.9907 18.3721 16.0321L19.5933 19.2025C19.6138 19.2232 19.6035 19.2543 19.5628 19.2958H19.5323ZM19.5323 19.2958C19.5933 19.2958 19.6239 19.275 19.6239 19.2336M19.5323 19.2958C19.4305 19.2958 19.4102 19.2647 19.4713 19.2025M19.5323 19.2958C19.5527 19.2958 19.5832 19.275 19.6239 19.2336M17.0287 19.2336C17.0287 19.1715 17.0593 19.1403 17.1204 19.1403M17.0287 19.2336L16.8761 22.031M17.0287 19.2336C17.0492 19.1715 17.0796 19.1403 17.1204 19.1403M17.1204 19.1403H19.5323M19.5323 19.1403C19.5933 19.1403 19.6239 19.1715 19.6239 19.2336M19.5323 19.1403C19.4916 19.1403 19.4713 19.1611 19.4713 19.2025M19.5323 19.1403C19.5933 19.1403 19.6239 19.1611 19.6239 19.2025V22.2175C19.6239 22.2797 19.5933 22.3107 19.5323 22.3107M19.6239 19.2336L20.0208 17.1201C20.0818 17.0579 20.0615 17.0267 19.9597 17.0267C19.9394 17.0267 19.9089 17.0475 19.8681 17.0889L19.4713 19.2025M19.5323 22.3107H19.5933C19.6341 22.2693 19.6341 22.2279 19.5933 22.1863M19.5323 22.3107C19.573 22.3107 19.5933 22.2899 19.5933 22.2485C19.6138 22.1863 19.5933 22.1553 19.5323 22.1553M19.5323 22.3107C19.4916 22.3107 19.4713 22.2797 19.4713 22.2175M19.5323 22.3107H19.4713C19.4305 22.2693 19.4305 22.2279 19.4713 22.1863M19.5323 22.3107C19.5527 22.3107 19.573 22.3003 19.5933 22.2797M19.5323 22.3107L22.1579 22.7147M19.5323 22.3107C19.4509 22.3107 19.4305 22.2797 19.4713 22.2175M19.5933 22.1863C19.5527 22.1449 19.5119 22.1449 19.4713 22.1863M19.5933 22.1863C19.6138 22.2279 19.6138 22.2589 19.5933 22.2797M19.5323 22.1553C19.4713 22.1553 19.4407 22.1863 19.4407 22.2485L19.6239 24.4864M19.5323 22.1553C19.573 22.1553 19.5933 22.176 19.5933 22.2175L19.7766 24.4553C19.7766 24.5175 19.7562 24.5486 19.7155 24.5486H19.6849M19.5323 22.1553C19.4916 22.1553 19.4713 22.176 19.4713 22.2175M19.5323 22.1553L22.1885 22.5594C22.2292 22.5594 22.2495 22.5904 22.2495 22.6526C22.2495 22.6941 22.219 22.7147 22.1579 22.7147M19.4713 22.2175V19.2025M21.2726 20.2282C21.2318 20.2282 21.2115 20.2179 21.2115 20.1971M21.2726 20.2282H21.3031C21.3438 20.2282 21.3642 20.1971 21.3642 20.1349M21.2726 20.2282H21.242L19.5018 19.2958C19.461 19.2543 19.4509 19.2129 19.4713 19.1715C19.4916 19.1507 19.5221 19.1403 19.5628 19.1403L21.3031 20.1039C21.3438 20.1039 21.3642 20.1349 21.3642 20.1971C21.3438 20.2179 21.3132 20.2282 21.2726 20.2282ZM21.2115 20.1971L22.0969 22.6526M21.2115 20.1971C21.1912 20.1557 21.2013 20.1143 21.242 20.0728C21.2828 20.0728 21.3234 20.0935 21.3642 20.1349M21.3642 20.1349L22.2495 22.5904M19.4713 22.1863L21.2115 20.1039C21.2522 20.0625 21.2929 20.0625 21.3337 20.1039C21.354 20.1453 21.354 20.1765 21.3337 20.1971L19.5933 22.2797M23.8677 27.0041L23.8066 26.9419L22.8907 24.6729M23.8677 27.0041C23.888 27.0041 23.8983 26.9937 23.8983 26.9729C23.9389 26.9729 23.9593 26.9419 23.9593 26.8797L23.0434 24.6108M23.8677 27.0041L20.8146 25.9161C20.7739 25.8747 20.7638 25.8437 20.7841 25.8229C20.7841 25.7815 20.8146 25.7608 20.8756 25.7608L23.8983 26.8487C23.9389 26.8487 23.9593 26.8797 23.9593 26.9419C23.9186 26.9833 23.888 27.0041 23.8677 27.0041ZM22.8907 24.6729C22.8907 24.6108 22.9111 24.5694 22.9517 24.5486C22.9925 24.5486 23.023 24.5694 23.0434 24.6108M22.8907 24.6729C22.9111 24.6936 22.9314 24.704 22.9517 24.704M22.8907 24.6729L22.0969 22.6526M23.0434 24.6108L22.2495 22.5904M23.0434 24.6108C23.0434 24.6522 23.023 24.6833 22.9823 24.704H22.9517M19.7155 24.3932C19.7562 24.4346 19.7766 24.4657 19.7766 24.4864M19.7155 24.3932L17.7005 23.9891C17.68 23.9891 17.6496 24.0098 17.6088 24.0512C17.6088 24.1134 17.6292 24.1446 17.6699 24.1446L19.6849 24.5486M19.7155 24.3932C19.7562 24.3932 19.7766 24.4243 19.7766 24.4864M19.7766 24.4864C19.7766 24.5278 19.746 24.5486 19.6849 24.5486M22.9517 24.704L19.6849 24.5486M22.9517 24.704C23.0128 24.704 23.0434 24.6833 23.0434 24.6418C23.0434 24.5796 23.023 24.5486 22.9823 24.5486L19.6849 24.3932C19.6443 24.3932 19.6239 24.4243 19.6239 24.4864M19.6849 24.5486C19.6443 24.5486 19.6239 24.5278 19.6239 24.4864M19.6849 24.5486C19.6646 24.5486 19.6443 24.5382 19.6239 24.5175M19.6849 24.5486H19.746L22.219 22.6837C22.2393 22.663 22.2393 22.6319 22.219 22.5904C22.1783 22.549 22.1478 22.5386 22.1275 22.5594M19.6239 24.5175L20.7841 25.8851C20.8044 25.9059 20.8247 25.9161 20.8452 25.9161C20.8655 25.9161 20.8858 25.9059 20.9062 25.8851C20.9672 25.8851 20.9672 25.8541 20.9062 25.7919L19.746 24.4243C19.7053 24.4035 19.6747 24.4035 19.6544 24.4243M19.6239 24.5175C19.6239 24.4761 19.6341 24.445 19.6544 24.4243M19.6239 24.5175C19.5628 24.4553 19.573 24.4243 19.6544 24.4243M19.6544 24.4243L22.1275 22.5594M22.1275 22.5594C22.0461 22.5594 22.0358 22.5904 22.0969 22.6526M22.1275 22.5594C22.1681 22.5386 22.2089 22.549 22.2495 22.5904M22.1579 22.7147C22.1173 22.7147 22.0969 22.6941 22.0969 22.6526M22.1579 22.7147H22.1885C22.2292 22.6733 22.2495 22.6319 22.2495 22.5904M4.60265 22.4972C4.62301 22.4764 4.66371 22.4868 4.72478 22.5282M4.60265 22.4972C4.66371 22.4972 4.70442 22.5076 4.72478 22.5282" stroke="white" stroke-width="0.2"></path> </g> <path d="M42.6739 11.5472C41.3801 9.86523 39.6334 9.60647 38.6307 9.60647C35.0404 9.60647 32 12.3234 32 16.7547C32 20.5067 34.3935 24 38.5984 24C39.5687 24 41.283 23.7736 42.6739 22.1563V23.5795H45.8437V9.96226H42.6739V11.5472ZM39.0189 12.4528C41.0243 12.4528 42.8679 13.876 42.8679 16.8518C42.8679 19.6981 41.0243 21.1536 39.0189 21.1536C36.7224 21.1536 35.2345 19.1806 35.2345 16.8194C35.2345 14.3935 36.7224 12.4528 39.0189 12.4528Z" fill="#29B981"></path> <path d="M49.8633 0V23.5795H53.0331V0H49.8633Z" fill="#29B981"></path> <path d="M62.7262 12.8733V9.96226H60.3004V4.98113H57.1306V9.96226H55.8044V12.8733H57.1306V23.5795H60.3004V12.8733H62.7262Z" fill="#29B981"></path> <path d="M74.4089 18.9865C74.1178 19.504 73.6973 20.0539 73.1474 20.4744C72.5005 20.9596 71.8536 21.1536 70.9803 21.1536C70.204 21.1536 69.2983 21.0243 68.5544 20.2803C67.8752 19.6011 67.4547 18.5013 67.39 17.531H77.1582V17.1429C77.1582 15.7197 76.9965 13.1968 75.2498 11.3854C74.4412 10.5445 73.0504 9.60647 70.8833 9.60647C68.9426 9.60647 67.4547 10.3181 66.3226 11.4501C64.8994 12.9057 64.1555 14.9434 64.1555 17.0458C64.1555 19.0836 64.8671 20.9596 66.1609 22.2534C67.4547 23.5472 68.9426 24 70.7539 24C72.2094 24 73.6649 23.6765 74.7647 22.965C75.638 22.4151 76.4789 21.5094 77.0612 20.4744L74.4089 18.9865ZM67.6164 14.9434C67.7781 14.2642 68.1339 13.6173 68.5868 13.1968C69.0072 12.7763 69.7188 12.3234 70.8186 12.3234C71.8536 12.3234 72.5329 12.7116 72.9533 13.0997C73.4385 13.5526 73.7943 14.1995 73.9237 14.9434H67.6164Z" fill="#29B981"></path> <path d="M80.471 23.5795H83.6408V16.5283C83.6408 15.6226 83.6408 14.3288 84.5142 13.3908C85.1287 12.7439 85.808 12.6469 86.4872 12.6469C86.8106 12.6469 87.3929 12.6792 88.1044 13.1321L89.3982 10.2534C88.5249 9.73585 87.684 9.60647 86.9077 9.60647C86.1961 9.60647 85.5815 9.70351 84.967 10.0593C84.5142 10.3181 83.9966 10.7709 83.6408 11.1914V9.96226H80.471V23.5795Z" fill="#29B981"></path> </svg> 